<svg width="897" height="159" viewBox="0 0 897 159" fill="none" xmlns="http://www.w3.org/2000/svg">
<path d="M395.733 31.8C386.789 31.8 379.833 38.7562 379.833 47.7C379.833 56.6437 386.789 63.6 395.733 63.6H459.333C487.71 63.6 507.033 85.7937 507.033 113.067C505.819 139.015 485.06 159 459.333 159H348.033V142.99C348.364 134.156 354.989 127.531 363.823 127.2H459.333C468.277 127.2 475.233 120.244 475.233 111.3C475.233 102.356 468.277 95.4 459.333 95.4H395.733C369.564 95.4 348.033 74.2 348.033 47.7C348.033 21.4208 369.233 0 395.733 0H533.754V31.8H395.733Z" fill="white"/>
<path d="M565.554 159H533.754V0H565.554V159Z" fill="white"/>
<path d="M648.587 31.8C639.644 31.8 632.687 38.7562 632.687 47.7C632.687 56.6437 639.644 63.6 648.587 63.6H712.187C740.564 63.6 759.887 85.7937 759.887 113.067C758.673 139.015 737.914 159 712.187 159H565.554V142.99C565.885 134.156 565.554 127.2 565.554 127.2H712.187C721.131 127.2 728.087 120.244 728.087 111.3C728.087 102.356 721.131 95.4 712.187 95.4H648.587C622.419 95.4 600.887 74.2 600.887 47.7C600.887 21.4208 622.087 0 648.587 0H712.187V31.8H648.587Z" fill="white"/>
<path d="M816.862 0V31.8H712.187V0H816.862ZM800.962 15.9C800.962 6.95625 807.919 0 816.862 0H896.362V31.8H832.762V159H800.962V15.9Z" fill="white"/>
<path d="M15.9 63.6H79.5C88.4438 63.6 95.4 56.6437 95.4 47.7C95.4 38.7562 88.4438 31.8 79.5 31.8H0V0C26.6104 0.110417 53.1104 0.110417 79.7208 0C105.89 0.552083 127.2 20.8687 127.2 47.7C127.2 60.8396 122.231 72.3229 112.404 82.2604C122.673 107.767 132.831 133.383 143.1 159H106.663C98.1604 137.8 89.7688 116.6 81.2667 95.4H31.8V159H0V79.2792C0.220833 70.4458 6.95625 63.6 15.9 63.6Z" fill="url(#paint0_linear_146_10)"/>
<path d="M162.754 31.8V0H274.054V31.8H162.754ZM178.433 63.6H289.954V95.4H194.554V127.2H321.754V159H162.754V79.2792C163.085 70.4458 169.6 63.9312 178.433 63.6Z" fill="url(#paint1_linear_146_10)"/>
<defs>
<linearGradient id="paint0_linear_146_10" x1="161" y1="0" x2="161" y2="159" gradientUnits="userSpaceOnUse">
<stop stop-color="#E75F42"/>
<stop offset="1" stop-color="#D63E1E"/>
</linearGradient>
<linearGradient id="paint1_linear_146_10" x1="161" y1="0" x2="161" y2="159" gradientUnits="userSpaceOnUse">
<stop stop-color="#E75F42"/>
<stop offset="1" stop-color="#D63E1E"/>
</linearGradient>
</defs>
</svg>
