<svg width="23" height="23" viewBox="0 0 23 23" fill="none" xmlns="http://www.w3.org/2000/svg">
<path d="M11.29 21.5526C12.6232 21.5543 13.9435 21.2926 15.1751 20.7824C16.4068 20.2722 17.5254 19.5237 18.4669 18.5798C19.4108 17.6384 20.1593 16.5197 20.6695 15.288C21.1797 14.0564 21.4414 12.7361 21.4397 11.403C21.4414 10.0698 21.1796 8.74952 20.6695 7.51789C20.1593 6.28625 19.4107 5.16757 18.4669 4.22614C17.5254 3.28223 16.4068 2.53368 15.1751 2.0235C13.9435 1.51332 12.6232 1.25158 11.29 1.2533C9.95692 1.2516 8.63661 1.51336 7.40497 2.02354C6.17334 2.53372 5.05466 3.28226 4.11322 4.22614C3.16934 5.16757 2.4208 6.28625 1.91063 7.51789C1.40045 8.74952 1.13869 10.0698 1.14039 11.403C1.13866 12.7361 1.40041 14.0564 1.91059 15.288C2.42077 16.5197 3.16932 17.6384 4.11322 18.5798C5.05466 19.5237 6.17334 20.2722 7.40497 20.7824C8.63661 21.2925 9.95692 21.5543 11.29 21.5526Z" stroke="#F6F6F6" stroke-width="1.68" stroke-linejoin="round"/>
<path d="M11.29 14.3029V12.1279C11.8636 12.1279 12.4243 11.9366 12.9011 11.5781C13.378 11.2196 13.7497 10.7101 13.9692 10.114C14.1887 9.51788 14.2461 8.86192 14.1342 8.22908C14.0223 7.59624 13.7461 7.01494 13.3406 6.55868C12.935 6.10243 12.4183 5.79172 11.8558 5.66584C11.2933 5.53996 10.7102 5.60456 10.1803 5.85149C9.65041 6.09841 9.1975 6.51656 8.87886 7.05305C8.56021 7.58955 8.39014 8.2203 8.39014 8.86554" stroke="#F6F6F6" stroke-width="1.68" stroke-linecap="round" stroke-linejoin="round"/>
<path fill-rule="evenodd" clip-rule="evenodd" d="M11.29 18.6527C11.6746 18.6527 12.0434 18.4999 12.3153 18.228C12.5872 17.9561 12.74 17.5873 12.74 17.2028C12.74 16.8182 12.5872 16.4494 12.3153 16.1775C12.0434 15.9056 11.6746 15.7528 11.29 15.7528C10.9055 15.7528 10.5367 15.9056 10.2648 16.1775C9.99285 16.4494 9.84009 16.8182 9.84009 17.2028C9.84009 17.5873 9.99285 17.9561 10.2648 18.228C10.5367 18.4999 10.9055 18.6527 11.29 18.6527Z" fill="#F6F6F6"/>
</svg>
