<svg width="25" height="24" viewBox="0 0 25 24" fill="none" xmlns="http://www.w3.org/2000/svg">
<path d="M12.3775 15.0937C14.0701 15.0937 15.4422 13.7659 15.4422 12.1279C15.4422 10.49 14.0701 9.16212 12.3775 9.16212C10.6849 9.16212 9.31284 10.49 9.31284 12.1279C9.31284 13.7659 10.6849 15.0937 12.3775 15.0937Z" stroke="#F6F6F6" stroke-width="1.68" stroke-linecap="round" stroke-linejoin="round"/>
<path d="M19.937 15.0937C19.801 15.3919 19.7605 15.7227 19.8206 16.0434C19.8807 16.3641 20.0386 16.66 20.2741 16.893L20.3354 16.9523C20.5254 17.1359 20.6761 17.354 20.7789 17.594C20.8817 17.8341 20.9347 18.0914 20.9347 18.3512C20.9347 18.611 20.8817 18.8683 20.7789 19.1083C20.6761 19.3484 20.5254 19.5664 20.3354 19.7501C20.1457 19.9339 19.9204 20.0797 19.6723 20.1792C19.4243 20.2787 19.1584 20.33 18.8899 20.33C18.6214 20.33 18.3556 20.2787 18.1075 20.1792C17.8595 20.0797 17.6342 19.9339 17.4444 19.7501L17.3831 19.6908C17.1424 19.4628 16.8366 19.31 16.5052 19.2518C16.1738 19.1937 15.832 19.2329 15.5239 19.3645C15.2218 19.4898 14.9641 19.6979 14.7826 19.9631C14.6011 20.2284 14.5037 20.5392 14.5023 20.8573V21.0254C14.5023 21.5498 14.2871 22.0527 13.9039 22.4235C13.5208 22.7943 13.0011 23.0026 12.4592 23.0026C11.9174 23.0026 11.3977 22.7943 11.0145 22.4235C10.6314 22.0527 10.4161 21.5498 10.4161 21.0254V20.9364C10.4082 20.6092 10.2988 20.2918 10.102 20.0256C9.90524 19.7594 9.63027 19.5566 9.31284 19.4436C9.00472 19.312 8.66293 19.2727 8.33154 19.3309C8.00015 19.389 7.69436 19.5419 7.4536 19.7698L7.39231 19.8292C7.20256 20.013 6.97723 20.1588 6.7292 20.2583C6.48117 20.3578 6.2153 20.409 5.94681 20.409C5.67831 20.409 5.41245 20.3578 5.16442 20.2583C4.91639 20.1588 4.69105 20.013 4.5013 19.8292C4.31134 19.6455 4.16064 19.4275 4.05783 19.1874C3.95501 18.9474 3.90209 18.6901 3.90209 18.4303C3.90209 18.1704 3.95501 17.9132 4.05783 17.6731C4.16064 17.4331 4.31134 17.215 4.5013 17.0314L4.5626 16.9721C4.7981 16.7391 4.95609 16.4432 5.01617 16.1225C5.07626 15.8018 5.0357 15.471 4.89971 15.1728C4.77022 14.8804 4.5552 14.6311 4.28112 14.4554C4.00705 14.2798 3.68588 14.1855 3.35716 14.1842H3.18349C2.64163 14.1842 2.12195 13.9759 1.7388 13.6051C1.35564 13.2343 1.14038 12.7314 1.14038 12.207C1.14038 11.6826 1.35564 11.1797 1.7388 10.8089C2.12195 10.4381 2.64163 10.2298 3.18349 10.2298H3.27543C3.61356 10.2222 3.9415 10.1162 4.21659 9.92583C4.49169 9.73542 4.70124 9.46932 4.81799 9.16212C4.95397 8.86395 4.99453 8.53318 4.93445 8.21248C4.87436 7.89178 4.71638 7.59586 4.48087 7.36287L4.41958 7.30355C4.22962 7.11992 4.07892 6.90186 3.9761 6.66183C3.87328 6.4218 3.82036 6.16451 3.82036 5.90468C3.82036 5.64484 3.87328 5.38755 3.9761 5.14752C4.07892 4.90749 4.22962 4.68943 4.41958 4.5058C4.60933 4.32197 4.83466 4.17613 5.08269 4.07663C5.33072 3.97713 5.59659 3.92591 5.86508 3.92591C6.13358 3.92591 6.39944 3.97713 6.64747 4.07663C6.8955 4.17613 7.12083 4.32197 7.31059 4.5058L7.37188 4.56512C7.61264 4.79303 7.91843 4.94591 8.24982 5.00406C8.5812 5.06221 8.92299 5.02295 9.23111 4.89136H9.31284C9.61498 4.76604 9.87267 4.55796 10.0542 4.29272C10.2357 4.02749 10.3331 3.71668 10.3344 3.39857V3.2305C10.3344 2.70611 10.5497 2.2032 10.9328 1.83241C11.316 1.46161 11.8356 1.2533 12.3775 1.2533C12.9194 1.2533 13.439 1.46161 13.8222 1.83241C14.2054 2.2032 14.4206 2.70611 14.4206 3.2305V3.31948C14.4219 3.6376 14.5193 3.9484 14.7008 4.21363C14.8823 4.47887 15.14 4.68695 15.4422 4.81227C15.7503 4.94387 16.0921 4.98312 16.4235 4.92497C16.7549 4.86683 17.0607 4.71394 17.3014 4.48603L17.3627 4.42671C17.5525 4.24288 17.7778 4.09704 18.0258 3.99754C18.2738 3.89804 18.5397 3.84682 18.8082 3.84682C19.0767 3.84682 19.3426 3.89804 19.5906 3.99754C19.8386 4.09704 20.064 4.24288 20.2537 4.42671C20.4437 4.61034 20.5944 4.82841 20.6972 5.06843C20.8 5.30846 20.8529 5.56575 20.8529 5.82559C20.8529 6.08542 20.8 6.34271 20.6972 6.58274C20.5944 6.82277 20.4437 7.04083 20.2537 7.22446L20.1924 7.28378C19.9569 7.51677 19.7989 7.8127 19.7388 8.13339C19.6788 8.45409 19.7193 8.78486 19.8553 9.08304V9.16212C19.9848 9.45452 20.1998 9.7039 20.4739 9.87955C20.748 10.0552 21.0691 10.1495 21.3979 10.1507H21.5715C22.1134 10.1507 22.6331 10.359 23.0162 10.7298C23.3994 11.1006 23.6146 11.6035 23.6146 12.1279C23.6146 12.6523 23.3994 13.1552 23.0162 13.526C22.6331 13.8968 22.1134 14.1051 21.5715 14.1051H21.4796C21.1509 14.1064 20.8297 14.2007 20.5556 14.3763C20.2815 14.552 20.0665 14.8013 19.937 15.0937Z" stroke="#F6F6F6" stroke-width="1.68" stroke-linecap="round" stroke-linejoin="round"/>
</svg>
