<svg width="26" height="26" viewBox="0 0 26 26" fill="none" xmlns="http://www.w3.org/2000/svg">
<path d="M24.3573 9.26664C24.9096 9.26664 25.3573 9.71436 25.3573 10.2666V15.2868C25.3573 15.8391 24.9096 16.2868 24.3573 16.2868H17.4911C16.9388 16.2868 16.4911 16.7345 16.4911 17.2868V24.5769C16.4911 25.1292 16.0434 25.5769 15.4911 25.5769H9.89152C9.33924 25.5769 8.89152 25.1292 8.89152 24.5769V17.2868C8.89152 16.7345 8.44381 16.2868 7.89152 16.2868H1C0.447716 16.2868 0 15.8391 0 15.2868V10.2666C0 9.71436 0.447715 9.26664 1 9.26664H7.89152C8.4438 9.26664 8.89152 8.81893 8.89152 8.26664V1C8.89152 0.447717 9.33924 0 9.89152 0H15.4911C16.0434 0 16.4911 0.447715 16.4911 1V8.26664C16.4911 8.81893 16.9388 9.26664 17.4911 9.26664H24.3573Z" fill="#FF6747"/>
</svg>
