<svg width="723" height="70" viewBox="0 0 723 70" fill="none" xmlns="http://www.w3.org/2000/svg">
<rect width="646.168" height="70" rx="1" fill="#FF6747"/>
<mask id="path-2-inside-1_1829_1160" fill="white">
<rect x="641.252" width="81.3491" height="70" rx="1"/>
</mask>
<rect x="641.252" width="81.3491" height="70" rx="1" stroke="#FF6747" stroke-width="12" mask="url(#path-2-inside-1_1829_1160)"/>
<path d="M693.605 31.4782C694.157 31.4782 694.605 31.9259 694.605 32.4782V37.4984C694.605 38.0507 694.157 38.4984 693.605 38.4984H686.739C686.187 38.4984 685.739 38.9461 685.739 39.4984V46.7884C685.739 47.3407 685.291 47.7884 684.739 47.7884H679.139C678.587 47.7884 678.139 47.3407 678.139 46.7884V39.4984C678.139 38.9461 677.692 38.4984 677.139 38.4984H670.248C669.696 38.4984 669.248 38.0507 669.248 37.4984V32.4782C669.248 31.9259 669.696 31.4782 670.248 31.4782H677.139C677.692 31.4782 678.139 31.0305 678.139 30.4782V23.2115C678.139 22.6593 678.587 22.2115 679.139 22.2115H684.739C685.291 22.2115 685.739 22.6593 685.739 23.2115V30.4782C685.739 31.0305 686.187 31.4782 686.739 31.4782H693.605Z" fill="#FF6747"/>
<path d="M200.696 28.0596H191.203V32.6738H199.348V37.4053H191.203V42.2832H200.696V47H186.457V23.3867H200.696V28.0596ZM214.139 47L221.317 34.7393L214.578 23.3867H220.027L224.07 30.5352L228.099 23.3867H233.548L226.795 34.7246L233.987 47H228.538L224.056 39.0752L219.588 47H214.139ZM248.06 47V23.3867H256.351C260.922 23.3867 264.657 26.9756 264.657 31.3701C264.657 35.75 260.922 39.3242 256.351 39.3242H252.807V47H248.06ZM256.351 34.6367C258.314 34.6514 259.911 33.1572 259.911 31.3262C259.911 29.5391 258.314 28.0889 256.351 28.0889H252.807V34.6221L256.351 34.6367ZM283.784 42.2832H293.276V47H279.038V23.3867H283.784V42.2832ZM318.145 47.4541C311.407 47.4541 305.884 41.9463 305.884 35.2227C305.884 28.4404 311.407 22.9033 318.16 22.9033C324.913 22.9033 330.45 28.4404 330.45 35.2227C330.45 41.9463 324.913 47.4541 318.145 47.4541ZM318.145 42.6494C322.276 42.6494 325.645 39.2949 325.645 35.1934C325.645 31.0625 322.276 27.6934 318.145 27.6934C314.029 27.6934 310.674 31.0625 310.674 35.1934C310.674 39.2949 314.029 42.6494 318.145 42.6494ZM363.317 47H357.516L350.001 35.8379V47H345.255L345.241 23.3867H352.946C357.355 23.3867 360.973 26.7852 360.973 31.0332C360.973 34.0654 359.142 36.7168 356.608 37.6104L363.317 47ZM349.987 28.0889V34.0215L353.034 34.0361C354.645 34.0508 356.08 32.7471 356.08 31.0625C356.08 29.3779 354.63 28.0889 353.034 28.0889H349.987ZM391.511 28.0596H382.019V32.6738H390.163V37.4053H382.019V42.2832H391.511V47H377.273V23.3867H391.511V28.0596ZM450.052 22.8008H450.316V47H445.57V36.7168L438.773 46.6045H438.744L431.932 36.7168V47H427.186V22.8008H427.45L438.759 38.4014L450.052 22.8008ZM481.967 47L480.473 43.7041H471.025L469.516 47H464.389L475.668 22.8008H475.815L487.109 47H481.967ZM472.871 39.6611H478.627L475.756 33.3477L472.871 39.6611ZM501.182 47V23.3867H505.928V47H501.182ZM528.805 47.4688C524.938 47.4688 522.081 45.8574 520.499 42.9277L524.293 40.2617C525.333 41.9316 526.842 42.6934 528.878 42.6934C531.105 42.6934 532.599 41.7852 532.599 40.5254C532.599 38.7969 529.772 37.4346 527.296 36.2041C524.645 34.8857 521.73 33.4355 521.73 29.6709C521.73 25.584 525.187 22.8887 529.523 22.8887C532.745 22.8887 535.411 24.2217 536.481 27.0781L532.98 29.5244C532.276 28.1182 530.914 27.5469 529.596 27.5469C527.823 27.5469 526.505 28.5723 526.505 29.7881C526.505 31.1943 528.292 31.6777 531.002 32.9521C534.913 34.7979 537.374 36.79 537.374 40.4229C537.374 44.7295 533.859 47.4688 528.805 47.4688Z" fill="#DBE1F4"/>
</svg>
