<svg width="48" height="45" viewBox="0 0 48 45" fill="none" xmlns="http://www.w3.org/2000/svg">
<path d="M0 0L10.4972 2.90349C12.3927 3.42777 13.7052 5.15259 13.7052 7.1192V30.618L3.37723 28.2008C1.39899 27.7378 0 25.9736 0 23.9419V0Z" fill="url(#paint0_linear_1829_1187)"/>
<path d="M33.5339 4.89789C33.5339 2.28703 35.8064 0.257618 38.4006 0.551725L47.2391 1.55374V29.8025C47.2391 32.4133 44.9666 34.4428 42.3724 34.1487L33.5339 33.1466V4.89789Z" fill="#FF6747"/>
<path d="M17.6313 43.2693C15.4008 43.0397 13.7052 41.1606 13.7052 38.9183V30.6179L33.534 33.1444V40.059C33.534 42.6518 31.2913 44.6755 28.7121 44.41L17.6313 43.2693Z" fill="url(#paint1_linear_1829_1187)"/>
<defs>
<linearGradient id="paint0_linear_1829_1187" x1="13.7052" y1="-3.7908" x2="-3.645" y2="31.6386" gradientUnits="userSpaceOnUse">
<stop stop-color="#E0E0E0"/>
<stop offset="1" stop-color="#EAEAEA"/>
</linearGradient>
<linearGradient id="paint1_linear_1829_1187" x1="35.721" y1="27.2646" x2="15.0174" y2="44.9063" gradientUnits="userSpaceOnUse">
<stop stop-color="#E8E8E8"/>
<stop offset="1" stop-color="#FEFEFE"/>
</linearGradient>
</defs>
</svg>
