<svg width="32" height="32" viewBox="0 0 32 32" fill="none" xmlns="http://www.w3.org/2000/svg">
<path d="M7.86349 13.9433V11.3432C7.86349 11.1893 7.86349 11.1277 8.06438 11.1277C9.78644 11.1277 11.1861 11.0257 11.8811 11.4355C12.5777 11.8438 12.6069 12.4075 12.6182 12.576C12.6295 12.7445 12.6247 12.9859 12.3007 13.5739C11.9767 14.162 10.5268 14.1733 9.48026 14.1733H8.09516C7.92506 14.1733 7.86349 14.1118 7.86349 13.9433ZM12.636 16.6681C12.7965 16.873 12.911 17.1099 12.9718 17.3628C13.0327 17.6158 13.0384 17.8789 12.9886 18.1343C12.9388 18.3896 12.8347 18.6313 12.6833 18.8429C12.5319 19.0545 12.3368 19.2311 12.1111 19.3606C11.7797 19.5 11.4242 19.5732 11.0646 19.5761H8.07896C7.92505 19.5761 7.86349 19.5761 7.86349 19.3768V16.2988C7.86349 16.1449 7.86349 16.0833 8.06438 16.0833H10.0489C11.2801 16.0833 12.0496 15.9764 12.636 16.6681Z" fill="#FF6747"/>
<path d="M23.4722 15.2426C23.3897 15.048 23.2644 14.8744 23.1057 14.7348C22.947 14.5951 22.7589 14.493 22.5553 14.4359C22.1484 14.3247 21.7226 14.3011 21.3059 14.3668C20.8893 14.4324 20.4913 14.5857 20.1383 14.8166C19.7865 15.172 19.5591 15.6318 19.4903 16.1271C19.4903 16.3005 19.4903 16.3329 19.696 16.3329H23.5354C23.725 16.3329 23.725 16.3329 23.7088 16.0947C23.6906 15.797 23.6111 15.5066 23.4722 15.2426ZM23.4722 15.2426C23.3897 15.048 23.2628 14.8744 23.1041 14.7348C22.9454 14.5951 22.7589 14.493 22.5553 14.4359C22.1484 14.3247 21.7226 14.3011 21.3059 14.3668C20.8893 14.4324 20.4913 14.5857 20.1383 14.8166C19.7865 15.172 19.5575 15.6318 19.4887 16.1271C19.4887 16.3005 19.4887 16.3329 19.6944 16.3329H23.5354C23.725 16.3329 23.725 16.3329 23.7088 16.0947C23.6906 15.797 23.6078 15.5066 23.469 15.2426M25.2721 0H6.31802C4.64238 0 3.03536 0.665646 1.8505 1.8505C0.665646 3.03536 0 4.64238 0 6.31802V25.2721C0 26.9477 0.665646 28.5547 1.8505 29.7396C3.03536 30.9244 4.64238 31.5901 6.31802 31.5901H25.2721C26.9477 31.5901 28.5547 30.9244 29.7396 29.7396C30.9244 28.5547 31.5901 26.9477 31.5901 25.2721V6.31802C31.5901 4.64238 30.9244 3.03536 29.7396 1.8505C28.5547 0.665646 26.9477 0 25.2721 0ZM19.0804 10.0602C19.0804 9.93549 19.0804 9.88689 19.223 9.88689H24.3406V11.2153C24.3406 11.2153 24.3454 11.3093 24.2612 11.3093H19.3024C19.0804 11.3093 19.0804 11.3093 19.0804 11.0889V10.0602ZM14.3419 21.6708C12.3979 22.7287 9.13035 22.3026 5.26016 22.3026V9.20811H11.4356C13.0151 9.20811 14.8943 9.60339 15.3998 11.2769C15.6622 12.0078 15.6462 12.8097 15.3549 13.5296C15.0635 14.2495 14.5172 14.8368 13.8203 15.1794C14.4627 15.4172 15.0235 15.834 15.4365 16.3805C15.8494 16.927 16.0971 17.5804 16.1503 18.2634C16.2035 18.9463 16.0599 19.6302 15.7365 20.234C15.4132 20.8379 14.9236 21.3365 14.3257 21.6708H14.3419ZM26.1096 17.9432H19.7916C19.6183 17.9432 19.4595 18.0371 19.4903 18.2591C19.6798 19.1906 20.1059 20.1707 21.0714 20.3132C21.5812 20.465 22.1272 20.4416 22.6222 20.247C23.1172 20.0523 23.5328 19.6975 23.8027 19.2392C23.8027 19.2392 23.8821 19.1436 23.9291 19.1436H25.9833C25.9833 19.1436 26.1096 19.1436 26.0772 19.2538C25.8606 19.8672 25.54 20.4387 25.1295 20.9434C24.5805 21.4678 23.918 21.8587 23.1935 22.0856C22.469 22.3125 21.7019 22.3695 20.9518 22.2519C20.2018 22.1344 19.4889 21.8456 18.8685 21.408C18.2481 20.9703 17.7369 20.3956 17.3745 19.7284C17.1517 19.2835 17.0128 18.8013 16.9647 18.3061C16.6829 17.0612 16.8983 15.7556 17.5649 14.6672C18.2315 13.5788 19.2967 12.7936 20.5336 12.4789C24.1186 11.7045 26.3931 14.1686 26.3931 17.6435C26.3984 17.6841 26.3943 17.7254 26.3811 17.7642C26.368 17.8029 26.346 17.8382 26.3171 17.8671C26.2881 17.8961 26.2529 17.918 26.2141 17.9312C26.1753 17.9444 26.134 17.9485 26.0934 17.9432H26.1096ZM22.5715 14.4359C22.165 14.3231 21.7389 14.2999 21.3225 14.3678C20.9062 14.4326 20.5336 14.512 20.1545 14.8166C19.7754 15.1195 19.5745 15.6314 19.5065 16.1271C19.5065 16.3005 19.5065 16.3329 19.7122 16.3329H23.5354C23.725 16.3329 23.725 16.3329 23.7088 16.0947C23.6906 15.797 23.6111 15.5066 23.4722 15.2426C23.3897 15.048 23.2644 14.8744 23.1057 14.7348C22.947 14.5951 22.7589 14.493 22.5553 14.4359H22.5715Z" fill="#FF6747"/>
</svg>
