<svg width="998" height="998" viewBox="0 0 998 998" fill="none" xmlns="http://www.w3.org/2000/svg">
<mask id="mask0_1829_1163" style="mask-type:luminance" maskUnits="userSpaceOnUse" x="429" y="154" width="374" height="818">
<path d="M429.007 154.357H802.924V971.968H429.007V154.357Z" fill="white"/>
</mask>
<g mask="url(#mask0_1829_1163)">
<path d="M670.909 940.745L654.494 933.188C654.22 933.064 653.932 932.947 653.645 932.842L597.274 912.455C590.083 909.854 587.069 920.253 587.272 927.894C587.278 928.018 590.056 938.333 599.104 948.307C611.78 962.281 626.704 971.948 645.571 971.968C654.651 971.975 663.889 971.307 670.152 969.15C674.473 967.661 677.271 963.471 677.271 958.902V950.666C677.271 946.404 674.793 942.522 670.909 940.745ZM449.707 616.653C447.759 613.653 443.817 612.679 440.692 614.424L432.71 618.875C429.251 620.81 428.166 625.281 430.356 628.575C437.986 646.327 449.014 662.805 463.245 678.087C465.54 681.538 470.345 682.159 473.437 679.407L479.909 673.662C482.419 671.426 482.923 667.682 481.092 664.864L449.707 616.653ZM741.761 595.319C734.008 596.548 699.818 596.652 672.832 596.535L674.957 603.672L647.121 870.147L597.012 872.232C560.828 678.12 589.592 621.758 589.592 621.758C586.298 620.274 583.185 618.758 580.217 617.221L559.436 632.196C559.436 632.196 537.863 614.803 521.166 577.233L533.489 569.619C525.945 544.801 538.117 520.597 549.185 505.112C548.936 501.714 548.799 496.249 548.733 489.341C547.759 489.341 546.838 489.262 545.982 489.105C510.36 482.4 497.174 298.914 539.431 277.561C559.279 261.253 588.559 248.442 624.273 242.546C623.377 239.657 622.579 236.71 621.867 233.742C614.205 237.592 609.204 219.918 613.172 213.833C614.401 211.944 616.114 211.434 617.892 211.624C615.663 194.021 615.806 179.95 615.806 179.95C619.285 164.994 632.857 159.772 661.039 155.255C689.221 150.732 702.439 169.517 703.485 201.871C703.512 202.741 703.544 203.623 703.576 204.512C704.721 204.742 705.78 205.368 706.617 206.643C709.363 210.858 707.806 220.637 704.041 224.971C703.975 232.095 703.531 239.2 702.244 245.828C727.046 253.632 751.051 266.789 765.374 277.81C773.846 283.169 797.041 300.006 800.212 325.366C804.2 357.257 799.146 414.122 789.648 445.372C795.87 451.999 800.846 462.072 802.297 477.392C808.56 543.487 754.979 593.234 741.761 595.319Z" fill="#DBE1F4"/>
</g>
<mask id="mask1_1829_1163" style="mask-type:luminance" maskUnits="userSpaceOnUse" x="427" y="138" width="471" height="317">
<path d="M427.937 138.123H897.886V454.023H427.937V138.123Z" fill="white"/>
</mask>
<g mask="url(#mask1_1829_1163)">
<path d="M616.035 202.454L615.343 200.525C615.146 199.859 614.905 199.225 614.663 198.597C614.408 197.918 614.16 197.277 613.97 196.578C613.408 194.865 613.023 193.087 612.643 191.361C612.453 190.48 612.264 189.597 612.055 188.767C611.506 185.845 611.081 183.4 611.055 180.845C611.041 179.499 611.231 178.165 611.433 176.916L611.747 174.884L611.884 173.884C611.996 173.198 611.747 172.596 611.029 171.806L610.721 171.537H610.355C609.322 171.537 608.603 171.89 608.236 172.583C608.034 172.936 607.851 173.295 607.681 173.669C607.355 174.381 607.079 175.145 606.864 175.962C606.498 177.485 606.23 179.015 606.059 180.485C605.563 183.806 605.498 186.937 605.864 189.793C606.236 192.544 607.139 195.447 608.616 198.624C609.184 199.983 609.91 201.251 610.61 202.48L610.741 202.702C611.047 203.212 611.414 203.689 611.78 204.16L612.12 204.605L612.787 205.428C613.133 205.931 613.689 206.192 614.428 206.192C614.643 206.192 614.892 206.172 615.18 206.12L615.494 206.068L615.695 205.82C616.2 205.192 616.729 204.349 616.369 203.499L616.035 202.454ZM664.707 142.725C664.948 142.928 665.176 143.059 665.432 143.151L665.654 143.216C665.85 143.268 666.053 143.327 666.196 143.386C666.353 143.471 666.51 143.562 666.667 143.648C667.125 143.916 667.602 144.183 668.066 144.308C668.367 144.425 668.701 144.484 669.073 144.484C669.393 144.484 669.72 144.439 670.047 144.393L670.616 144.314C670.884 144.282 671.191 144.242 671.505 144.131C671.721 144.059 671.943 143.948 672.198 143.797L672.407 143.667C672.871 143.431 673.021 142.856 673.244 141.811C673.297 140.863 673.303 140.281 672.923 139.928L672.728 139.713C672.544 139.536 672.368 139.367 672.204 139.262C671.917 139.046 671.635 138.928 671.387 138.83L670.838 138.588C670.355 138.373 669.806 138.138 669.021 138.138C669.007 138.138 668.995 138.138 668.989 138.138C668.432 138.138 667.903 138.268 667.393 138.392C667.216 138.438 667.04 138.484 666.922 138.51C666.713 138.536 666.504 138.536 666.295 138.536L666.033 138.542C665.785 138.562 665.53 138.627 665.176 138.791L664.922 138.935C664.516 139.164 664.359 139.601 664.111 140.699C664.072 141.673 664.105 142.131 664.432 142.458L664.707 142.725ZM645.042 147.125C646.238 146.765 647.415 146.36 648.592 145.962C649.827 145.536 651.063 145.111 652.305 144.745C653.521 144.419 654.749 144.111 655.998 143.817C656.254 143.752 656.502 143.68 656.757 143.608C657.117 143.51 657.476 143.405 657.882 143.314L658.751 143.079C659.685 142.916 660.091 142.013 660.339 141.248L660.437 140.968L660.326 140.693C660.065 139.993 659.594 139.065 658.614 139.013L657.574 138.87C657.025 138.791 656.449 138.758 655.751 138.758H655.155C654.018 138.758 652.912 138.909 651.841 139.046L651.102 139.144C648.415 139.575 645.571 140.092 642.937 141.21C640.257 142.274 637.72 143.726 635.557 144.994L634.34 145.674C633.555 146.105 632.778 146.543 632.006 147C631.444 147.334 630.869 147.732 630.215 148.243L629.43 148.915C628.679 149.563 628.758 150.517 628.881 151.177L628.941 151.504L629.209 151.7C629.823 152.144 630.333 152.354 630.823 152.354C631.026 152.354 631.215 152.315 631.406 152.249L632.36 151.903C632.994 151.654 633.615 151.4 634.229 151.106C635.177 150.635 636.432 150.026 637.708 149.517C639.348 148.903 641.048 148.373 642.695 147.863C643.486 147.615 644.277 147.373 645.042 147.125ZM539.628 287.326L539.189 287.209C538.941 287.143 538.7 287.111 538.477 287.111C537.726 287.111 537.261 287.477 536.974 287.751L535.889 288.804L535.535 289.163C535.3 289.398 535.064 289.647 534.797 289.941L533.887 291.144C533.476 291.679 533.084 292.235 532.692 292.798L532.07 293.673L530.482 296.281C528.004 300.32 526.233 304.046 525.069 307.647C523.853 311.17 523.023 315.158 522.448 320.21C522.239 322.256 522.036 324.439 522.042 326.603C522.029 327.576 522.055 328.641 522.146 329.87L522.291 331.419C522.343 332.387 522.814 333.106 523.709 333.629L524.069 333.838L524.402 333.596C525.252 333.008 525.664 332.341 525.73 331.492L525.925 329.988L526.325 327.001C526.619 324.909 526.887 323.014 527.227 321.099C527.887 317.425 528.907 313.811 529.887 310.307L530.064 309.68C531.233 305.555 532.541 302.014 534.058 298.863L535.378 296.353L535.921 295.536C536.274 295.007 536.627 294.477 536.967 293.915C537.392 293.19 537.875 292.516 538.38 291.804L538.543 291.562L539.34 290.346C539.804 289.64 539.922 288.863 539.726 287.823L539.628 287.326ZM431.925 310.236C433.246 311.412 435.482 312.419 437.73 311.955C438.855 311.765 439.751 311.249 440.587 310.772C441.169 310.393 441.744 310.007 442.32 309.667C443.463 308.987 444.621 308.418 445.654 308.177C446.693 307.935 447.491 307.994 448.314 308.406C449.145 308.824 449.994 309.667 450.74 310.673C451.524 311.673 452.159 312.83 452.838 314.066C454.302 316.707 455.97 319.694 459.395 321.505C461.089 322.366 462.984 322.615 464.599 322.589C466.24 322.576 467.724 322.386 469.168 322.191L471.313 321.909C471.973 321.877 472.568 321.766 473.196 321.825C474.45 321.837 475.706 322.092 476.915 322.543C479.347 323.504 481.439 324.969 484.42 326.223C483.78 322.935 481.125 320.72 478.19 319.432C476.719 318.759 475.11 318.302 473.456 318.157C472.639 318.033 471.777 318.099 470.985 318.099L468.783 318.223C465.874 318.393 463.128 318.668 461.415 317.622C459.637 316.628 458.147 314.341 456.858 311.942C456.146 310.628 455.381 309.223 454.375 307.921C453.394 306.615 452.191 305.275 450.419 304.34C448.654 303.38 446.366 303.249 444.601 303.706C442.797 304.144 441.332 304.922 439.973 305.706C439.293 306.105 438.652 306.523 438.018 306.941C437.58 307.164 437.221 307.406 436.881 307.438C436.247 307.582 435.521 307.432 434.599 306.798C433.704 306.19 432.75 305.294 431.86 304.294C430.939 303.275 430.448 302.065 428.362 301.399C427.402 303.418 428.285 304.785 428.937 306.203C429.651 307.621 430.533 309.04 431.925 310.236ZM481.74 351.401C480.125 351.466 478.478 351.787 476.941 352.407C476.157 352.662 475.412 353.107 474.706 353.459L472.796 354.571C470.28 356.034 467.953 357.519 465.952 357.362C463.919 357.283 461.552 355.911 459.323 354.355C458.095 353.505 456.781 352.597 455.29 351.884C453.825 351.165 452.152 350.518 450.151 350.479C448.138 350.421 446.04 351.336 444.666 352.545C443.255 353.747 442.3 355.1 441.444 356.414C441.012 357.08 440.633 357.734 440.254 358.402C439.966 358.8 439.757 359.172 439.469 359.362C438.966 359.774 438.247 359.963 437.142 359.82C436.07 359.676 434.815 359.309 433.567 358.819C432.285 358.329 431.298 357.473 429.14 357.819C429.193 360.054 430.599 360.872 431.827 361.839C433.096 362.787 434.527 363.657 436.306 364.094C438.018 364.538 440.469 364.427 442.268 363.003C443.183 362.329 443.751 361.46 444.281 360.656C444.628 360.054 444.968 359.446 445.327 358.891C446.04 357.774 446.817 356.741 447.622 356.054C448.445 355.368 449.184 355.061 450.105 355.054C451.027 355.054 452.171 355.42 453.296 355.989C454.44 356.525 455.532 357.27 456.695 358.062C459.199 359.754 462.029 361.675 465.906 361.734C467.808 361.748 469.613 361.107 471.045 360.355C472.496 359.603 473.732 358.76 474.935 357.937L476.719 356.722C477.295 356.388 477.778 356.022 478.366 355.793C479.491 355.237 480.726 354.897 482.008 354.754C484.61 354.512 487.139 354.871 490.362 354.642C488.31 352.002 484.937 351.224 481.74 351.401ZM477.595 392.07C476.15 392.808 474.79 393.788 473.653 394.991C473.045 395.553 472.561 396.272 472.064 396.886L470.796 398.697C469.13 401.076 467.633 403.397 465.749 404.089C463.866 404.873 461.147 404.618 458.467 404.135C456.996 403.874 455.421 403.598 453.773 403.58C452.139 403.54 450.348 403.651 448.511 404.455C446.66 405.246 445.137 406.952 444.399 408.625C443.62 410.305 443.32 411.939 443.091 413.488C442.98 414.273 442.915 415.031 442.849 415.789C442.751 416.273 442.712 416.697 442.529 416.991C442.248 417.58 441.68 418.051 440.614 418.377C439.581 418.704 438.286 418.894 436.946 418.966C435.573 419.057 434.318 418.697 432.507 419.914C433.488 421.92 435.109 422.077 436.632 422.443C438.181 422.769 439.843 422.96 441.646 422.612C443.385 422.306 445.562 421.175 446.595 419.129C447.151 418.135 447.302 417.103 447.445 416.148C447.511 415.462 447.563 414.776 447.66 414.116C447.837 412.796 448.105 411.534 448.556 410.573C449.014 409.605 449.556 409.024 450.387 408.632C451.23 408.239 452.419 408.102 453.682 408.141C454.944 408.148 456.244 408.37 457.637 408.606C460.618 409.09 463.991 409.645 467.54 408.083C469.267 407.292 470.639 405.965 471.627 404.684C472.633 403.39 473.405 402.109 474.15 400.854L475.261 399.004C475.647 398.462 475.929 397.925 476.366 397.468C477.15 396.494 478.131 395.677 479.236 395.004C481.505 393.696 483.949 392.965 486.78 391.409C483.806 389.867 480.42 390.573 477.595 392.07ZM896.873 404.854C896.167 403.435 895.29 402.024 893.891 400.821C892.571 399.651 890.335 398.645 888.086 399.109C886.962 399.292 886.066 399.814 885.229 400.292C884.648 400.664 884.072 401.057 883.497 401.389C882.353 402.069 881.196 402.638 880.17 402.88C879.124 403.121 878.326 403.063 877.502 402.658C876.672 402.24 875.829 401.397 875.077 400.383C874.299 399.389 873.659 398.233 872.979 396.991C871.514 394.357 869.848 391.37 866.422 389.559C864.729 388.69 862.832 388.448 861.218 388.467C859.578 388.481 858.093 388.67 856.648 388.867L854.504 389.147C853.844 389.187 853.249 389.298 852.622 389.232C851.366 389.219 850.111 388.964 848.902 388.52C846.469 387.553 844.378 386.089 841.397 384.833C842.038 388.127 844.692 390.344 847.626 391.631C849.097 392.298 850.706 392.762 852.36 392.905C853.177 393.03 854.04 392.965 854.831 392.965L857.034 392.84C859.943 392.664 862.689 392.396 864.401 393.442C866.18 394.428 867.677 396.723 868.958 399.115C869.671 400.429 870.436 401.834 871.442 403.141C872.423 404.442 873.625 405.782 875.391 406.716C877.162 407.684 879.45 407.815 881.215 407.35C883.02 406.919 884.484 406.141 885.844 405.35C886.523 404.958 887.165 404.54 887.799 404.115C888.237 403.9 888.596 403.658 888.936 403.618C889.571 403.481 890.296 403.632 891.217 404.259C892.113 404.873 893.068 405.763 893.957 406.769C894.879 407.782 895.369 408.998 897.455 409.658C898.422 407.638 897.533 406.279 896.873 404.854ZM844.077 359.656C845.692 359.591 847.34 359.277 848.882 358.656C849.66 358.402 850.405 357.95 851.111 357.597L853.014 356.493C855.537 355.022 857.864 353.538 859.864 353.702C861.898 353.78 864.264 355.153 866.494 356.708C867.723 357.557 869.037 358.466 870.527 359.172C871.991 359.891 873.665 360.545 875.665 360.577C877.685 360.643 879.778 359.728 881.15 358.519C882.563 357.316 883.523 355.963 884.373 354.642C884.804 353.982 885.183 353.322 885.563 352.662C885.851 352.264 886.06 351.891 886.348 351.701C886.851 351.29 887.569 351.093 888.674 351.244C889.747 351.381 891.002 351.747 892.251 352.244C893.531 352.734 894.519 353.59 896.683 353.244C896.624 351.009 895.219 350.185 893.99 349.218C892.721 348.276 891.29 347.407 889.511 346.969C887.799 346.518 885.347 346.629 883.549 348.061C882.634 348.727 882.066 349.604 881.536 350.407C881.189 351.002 880.849 351.61 880.49 352.165C879.778 353.29 878.999 354.316 878.195 355.002C877.372 355.688 876.633 355.996 875.711 356.002C874.79 356.008 873.645 355.636 872.521 355.074C871.377 354.538 870.285 353.793 869.122 352.996C866.624 351.302 863.787 349.387 859.91 349.322C858.008 349.316 856.204 349.95 854.779 350.701C853.321 351.453 852.085 352.296 850.882 353.119L849.097 354.342C848.523 354.668 848.039 355.042 847.451 355.27C846.326 355.825 845.09 356.159 843.809 356.31C841.207 356.545 838.678 356.185 835.454 356.414C837.507 359.054 840.881 359.839 844.077 359.656ZM848.222 318.988C849.666 318.249 851.026 317.276 852.164 316.073C852.771 315.51 853.256 314.791 853.753 314.177L855.021 312.367C856.687 309.981 858.184 307.661 860.067 306.967C861.95 306.19 864.669 306.444 867.349 306.929C868.82 307.183 870.396 307.458 872.044 307.484C873.678 307.517 875.47 307.412 877.307 306.601C879.156 305.817 880.679 304.111 881.418 302.438C882.196 300.751 882.497 299.125 882.726 297.568C882.837 296.784 882.909 296.026 882.967 295.268C883.066 294.79 883.104 294.359 883.288 294.072C883.569 293.484 884.138 293.007 885.203 292.679C886.237 292.359 887.531 292.17 888.871 292.091C890.243 291.999 891.499 292.366 893.31 291.144C892.329 289.137 890.708 288.98 889.185 288.614C887.635 288.287 885.975 288.098 884.171 288.45C882.432 288.758 880.255 289.882 879.221 291.935C878.666 292.928 878.516 293.954 878.372 294.908C878.307 295.595 878.255 296.287 878.156 296.948C877.979 298.262 877.712 299.523 877.261 300.483C876.802 301.451 876.261 302.04 875.43 302.425C874.587 302.817 873.397 302.961 872.142 302.915C870.874 302.909 869.573 302.693 868.18 302.457C865.2 301.968 861.826 301.412 858.276 302.974C856.55 303.765 855.177 305.092 854.19 306.38C853.184 307.667 852.412 308.955 851.667 310.21L850.556 312.059C850.177 312.595 849.895 313.131 849.451 313.589C848.666 314.562 847.686 315.387 846.581 316.053C844.319 317.367 841.867 318.099 839.036 319.648C842.012 321.191 845.398 320.485 848.222 318.988ZM719.077 444.797C719.097 444.293 719.214 443.797 719.488 443.3C719.488 443.3 716.991 444.332 713.703 445.43L719.077 444.797ZM741.867 358.565L739.48 405.344C731.864 405.612 720.528 406.403 718.966 408.684C716.711 411.991 721.581 418.077 721.581 418.077C698.439 425.038 698.262 431.47 698.262 431.47C696.354 434.43 699.654 440.169 699.654 440.169C699.654 440.169 695.308 443.823 698.785 447.124C698.811 447.15 698.844 447.163 698.87 447.189L642.191 453.902C639.831 454.183 637.766 452.313 637.811 449.934L639.4 370.153C639.439 368.212 640.897 366.584 642.825 366.343L737.467 354.479C739.885 354.173 741.99 356.127 741.867 358.565Z" fill="#FFA179"/>
</g>
<path d="M641.839 365.493L738.918 354.016C740.807 353.747 742.533 355.139 742.761 357.048C742.984 358.943 741.63 360.663 739.728 360.885L642.656 372.362C642.519 372.382 642.381 372.388 642.244 372.388C640.511 372.388 639.021 371.095 638.811 369.336C638.583 367.441 639.943 365.715 641.839 365.493ZM697.354 390.337C697.203 392.879 695.255 394.951 692.718 395.259L692.006 395.344C688.757 395.729 685.939 393.082 686.129 389.814C686.279 387.265 688.227 385.193 690.764 384.892L691.477 384.807C694.732 384.415 697.543 387.062 697.354 390.337ZM664.307 679.727C665.007 682.421 665.295 685.185 665.562 687.937C665.784 689.297 665.647 690.695 665.635 692.075L665.589 694.14C665.595 694.82 665.425 695.519 664.516 696.206C663.522 695.558 663.261 694.912 663.182 694.244L662.869 692.277C662.647 690.97 662.503 689.663 662.182 688.382C661.581 685.806 661.208 683.218 660.371 680.728C658.999 675.675 656.842 670.911 654.508 666.27C652.18 661.622 649.421 657.132 646.101 653.04C645.27 652.02 644.356 651.073 643.485 650.086L640.674 647.308L637.772 644.622C637.295 644.164 636.798 643.727 636.308 643.288C635.811 642.844 635.406 642.314 635.288 641.242C636.308 640.902 637.02 641.118 637.602 641.478C638.197 641.838 638.799 642.19 639.368 642.582C640.525 643.341 641.59 644.216 642.662 645.085C644.747 646.883 646.709 648.831 648.604 650.831C652.429 654.798 655.914 659.198 658.568 664.106C661.248 668.989 663.216 674.283 664.307 679.727ZM704.578 273.776C705.355 270.189 705.78 266.521 705.826 262.868C705.91 261.037 705.813 259.214 705.727 257.397C705.708 256.881 705.649 256.358 705.564 255.841C705.597 255.893 705.623 255.939 705.656 255.985C706.355 257.031 707.003 258.103 707.63 259.188L709.48 262.449L711.18 265.789C713.357 270.28 714.874 275.078 715.691 279.947C716.207 282.372 716.253 284.849 716.494 287.287C716.416 289.744 716.567 292.196 716.162 294.627C715.991 295.836 715.939 297.059 715.684 298.254L714.991 301.569C714.822 301.131 714.657 300.686 714.468 300.248C713.168 297.34 711.48 294.405 708.669 292.209C707.277 291.124 705.532 290.346 703.715 290.124C701.904 289.889 700.113 290.156 698.53 290.744C698.36 290.804 698.197 290.882 698.027 290.947C701.034 285.581 703.309 279.79 704.578 273.776ZM604.131 319.348C605.164 320.027 606.55 319.746 607.236 318.713C608.949 316.111 610.995 313.504 613.14 311.132C615.317 308.765 617.651 306.537 620.226 304.732C622.77 302.895 625.573 301.471 628.509 300.968C629.973 300.725 631.477 300.693 632.935 301.052C633.994 301.281 634.889 301.745 636.06 301.96C638.348 304.869 640.831 307.641 643.453 310.262L647.598 314.073C649.081 315.222 650.618 316.308 652.129 317.425L654.409 319.092L656.862 320.485L661.784 323.275C662.347 323.589 663.065 323.635 663.687 323.321L663.758 323.282C670.472 319.863 676.447 315.733 681.925 310.804C686.966 306.243 691.555 301.131 695.308 295.418C695.405 295.359 695.503 295.301 695.608 295.248C696.87 294.614 698.145 293.993 699.445 293.732C702.034 293.072 704.447 293.542 706.316 295.176C708.218 296.778 709.598 299.254 710.611 301.857C711.611 304.445 712.337 307.327 712.723 310.027L712.729 310.079C712.84 310.876 713.383 311.589 714.194 311.883C715.357 312.307 716.659 311.7 717.083 310.53C718.894 305.555 720.41 300.366 720.627 295.013C720.947 292.359 720.685 289.686 720.639 287.038C720.293 284.405 720.025 281.757 719.339 279.202C718.122 274.058 716.279 269.11 713.939 264.429C712.736 262.109 711.428 259.834 709.905 257.711C709.14 256.652 708.349 255.613 707.512 254.606C706.735 253.626 705.865 252.658 704.322 252.358C704.27 252.266 704.238 252.168 704.178 252.076C703.342 253.959 703.375 255.704 703.322 257.462C703.282 259.22 703.264 260.972 703.061 262.711C702.793 266.201 702.099 269.626 701.262 272.993C699.504 279.711 696.628 286.111 692.771 291.889C688.96 297.686 684.181 302.837 678.925 307.399C673.931 311.621 668.478 315.588 662.784 318.582L659.11 316.602L656.776 315.353L654.6 313.844C653.155 312.818 651.684 311.838 650.266 310.792L646.264 307.288C641.107 302.451 636.38 297.019 632.673 290.875C628.927 284.771 625.875 278.228 623.45 271.45C622.246 268.058 621.174 264.62 620.206 261.142C619.716 259.404 619.291 257.652 618.899 255.887C618.507 254.122 618.017 252.397 616.964 250.691C616.329 252.606 616.434 254.482 616.715 256.299C617.003 258.122 617.331 259.939 617.729 261.737C618.448 265.358 619.474 268.907 620.625 272.424C622.959 279.437 626.044 286.209 629.803 292.614C630.947 294.66 632.209 296.64 633.555 298.562C631.843 297.967 629.973 297.791 628.169 297.908C624.45 298.163 621.07 299.745 618.128 301.621C615.16 303.537 612.564 305.857 610.146 308.301C609.093 309.379 608.099 310.484 607.125 311.615L606.851 308.243C606.753 305.255 606.524 302.262 606.57 299.268C606.393 293.275 606.922 287.3 607.53 281.333C608.263 275.378 609.472 269.469 611.244 263.737C612.1 260.862 613.114 258.031 614.172 255.227C614.695 253.822 615.238 252.416 615.84 251.044C616.448 249.664 617.108 248.371 616.964 246.514C615.245 247.266 614.48 248.664 613.761 250.024C613.009 251.384 612.323 252.769 611.649 254.161C611.002 255.567 610.401 256.992 609.858 258.436C609.276 259.874 608.76 261.325 608.309 262.803C606.419 268.686 604.902 274.685 603.805 280.771C602.811 286.869 602.091 293.045 602.033 299.242C601.876 305.438 602.34 311.628 603.144 317.759C603.23 318.38 603.57 318.974 604.131 319.348ZM627.933 250.358C627.529 249.364 627.267 248.286 627.633 246.978C628.81 247.638 629.444 248.475 629.941 249.403L631.497 252.135L634.791 257.468C637.054 260.972 639.563 264.306 642.355 267.352C645.173 270.391 648.382 272.967 651.743 275.195C655.2 277.248 658.862 278.901 662.725 279.574C670.394 281.025 678.709 279.417 684.893 274.482C687.979 271.992 690.529 268.815 692.692 265.365C693.738 263.613 694.758 261.828 695.628 259.953C696.059 259.011 696.477 258.064 696.843 257.096C697.203 256.122 697.68 255.221 698.844 254.396C699.537 255.645 699.439 256.79 699.138 257.835C698.87 258.894 698.55 259.933 698.21 260.972C697.517 263.045 696.7 265.091 695.666 267.044C693.64 270.966 690.914 274.601 687.495 277.594C684.063 280.581 679.859 282.738 675.414 283.849C670.963 285.117 666.307 284.855 661.81 284.085C657.312 283.097 653.214 281.032 649.487 278.588C645.911 275.927 642.642 272.941 639.865 269.581C637.06 266.24 634.484 262.743 632.261 259.037C631.176 257.175 630.124 255.286 629.235 253.318L627.933 250.358ZM750.012 368.068L750.188 366.852C750.319 366.041 750.449 365.224 750.717 364.454C751.149 362.872 751.705 361.329 752.371 359.832C753.64 356.813 755.15 353.852 757.19 351.27C759.164 348.643 761.53 346.349 763.981 344.217C765.192 343.132 766.387 342.048 767.663 341.041C768.315 340.551 768.957 340.067 769.669 339.655C770.022 339.446 770.388 339.257 770.754 339.067C771.108 338.871 771.585 338.805 772.376 339.283C772.513 340.205 772.337 340.583 772.068 340.865L771.257 341.701C770.715 342.251 770.16 342.786 769.597 343.303C768.48 344.361 767.368 345.42 766.349 346.57C764.341 348.91 762.609 351.439 760.922 353.956C759.268 356.493 757.471 358.937 756.026 361.617C755.242 362.931 754.62 364.31 753.902 365.669C753.542 366.349 753.208 367.042 752.862 367.735L752.319 368.775C752.162 369.127 751.842 369.427 750.803 369.552C750.005 368.918 749.933 368.467 750.012 368.068ZM597.946 501.629C598.306 500.826 598.626 500.629 598.934 500.603L599.836 500.504C600.437 500.478 601.045 500.466 601.64 500.512L605.21 500.826C607.602 500.955 610.021 501.047 612.401 501.478C614.787 501.858 617.095 502.669 619.363 503.564C620.494 504.035 621.645 504.453 622.724 505.087C623.259 505.393 623.789 505.695 624.299 506.073L625.044 506.656C625.305 506.819 625.482 507.165 625.312 508.119C624.613 508.825 624.259 508.917 623.991 508.825L623.142 508.642L621.456 508.276L618.148 507.439C615.931 506.91 613.643 506.616 611.433 505.982L604.713 504.126C603.576 503.864 602.425 503.675 601.274 503.485C600.706 503.381 600.137 503.25 599.568 503.087L598.719 502.812C598.431 502.727 598.169 502.478 597.946 501.629ZM593.887 608.588C592.312 609.646 590.756 610.738 589.135 611.738L586.742 613.294C585.951 613.817 585.056 614.203 583.794 614.111C584.048 612.869 584.69 612.123 585.422 611.503L587.638 609.679C589.109 608.463 590.625 607.293 592.161 606.162C595.234 603.888 598.352 601.685 601.457 599.463C607.609 594.927 613.898 590.56 620.351 586.43C626.822 582.325 633.549 578.619 640.485 575.286C641.479 574.789 642.493 574.338 643.499 573.868C642.44 574.069 641.374 574.279 640.316 574.495C636.131 575.371 631.895 576.018 627.679 576.691C623.456 577.384 619.233 578.037 614.983 578.521L608.622 579.312C606.498 579.58 604.36 579.717 602.117 579.09C604.092 577.815 606.164 577.312 608.263 576.926L614.546 575.783C618.742 575.069 622.893 574.122 627.07 573.338C631.248 572.534 635.419 571.697 639.563 570.769C643.708 569.834 647.892 569.057 652.004 567.985C668.524 564.05 684.828 559.266 700.616 553.252C708.565 550.357 716.253 546.853 723.725 542.97C731.203 539.107 738.33 534.558 744.755 529.199C751.117 523.781 756.693 517.381 760.439 510.008C762.308 506.328 763.655 502.394 764.367 498.341C764.747 496.315 764.871 494.256 764.871 492.197C764.825 490.131 764.792 488.119 764.956 485.858C766.42 487.661 766.917 489.916 767.094 492.099C767.204 494.302 767.185 496.518 766.891 498.707C766.603 501.289 765.975 503.819 765.146 506.276C765.158 506.264 765.172 506.25 765.184 506.237C766.957 504.407 768.675 502.512 770.657 500.91C772.598 499.263 774.696 497.786 776.736 496.243C777.736 495.459 778.704 494.629 779.678 493.805C780.168 493.4 780.691 493.028 781.227 492.674L782.058 492.171C782.332 491.994 782.718 491.949 783.509 492.348C783.835 493.177 783.75 493.557 783.555 493.819L782.966 494.589C782.561 495.093 782.142 495.577 781.692 496.028C780.782 496.917 779.861 497.799 778.978 498.72C777.245 500.596 775.579 502.544 773.748 504.315C771.963 506.139 769.911 507.662 767.917 509.25C766.91 510.034 765.93 510.851 764.878 511.577C764.355 511.95 763.805 512.296 763.256 512.636L762.413 513.126C762.327 513.185 762.224 513.225 762.106 513.237C758.294 520.343 752.92 526.479 746.946 531.722C733.877 543.258 718.208 551.134 702.282 557.533C693.921 560.834 685.39 563.625 676.76 566.056C676.846 566.285 676.937 566.514 677.016 566.75C677.297 567.677 677.474 568.625 677.617 569.566C677.885 571.449 677.996 573.325 678.127 575.194C678.448 578.933 678.591 582.672 678.467 586.391C678.376 590.116 677.8 593.797 677.251 597.457C676.951 599.28 676.722 601.116 676.303 602.927C676.126 603.836 675.891 604.738 675.656 605.639L675.283 606.986C675.179 607.437 674.911 607.868 673.911 608.196C673.021 607.607 672.871 607.13 672.884 606.673L672.865 605.28C672.865 604.359 672.858 603.43 672.917 602.516C672.983 600.679 673.094 598.855 673.211 597.032C673.446 593.378 673.505 589.731 673.878 586.11C674.166 582.495 674.643 578.874 674.786 575.26C674.839 573.455 674.774 571.658 674.656 569.88L674.473 567.239C674.454 567.063 674.44 566.887 674.427 566.704C669.524 568.05 664.595 569.291 659.646 570.436L657.502 571.325C655.789 572.103 654.115 572.991 652.403 573.743C650.684 574.488 649.049 575.469 647.35 576.272C645.656 577.083 643.996 577.978 642.342 578.9C635.706 582.482 629.261 586.456 622.762 590.345C616.225 594.175 609.76 598.155 603.34 602.215C600.15 604.28 597.019 606.437 593.887 608.588ZM539.491 327.687C540.189 327.001 540.771 326.935 541.282 327.034C541.798 327.132 542.32 327.217 542.831 327.341C543.864 327.563 544.851 327.89 545.845 328.223C547.819 328.91 549.735 329.746 551.65 330.576C555.507 332.204 559.279 334.139 562.737 336.564C564.496 337.74 566.117 339.113 567.685 340.537C569.15 342.074 570.713 343.498 572.02 345.172C572.687 345.989 573.393 346.773 574.027 347.616C574.655 348.473 575.223 349.361 575.812 350.238C576.432 351.081 576.909 352.035 577.374 352.976L578.067 354.401C578.309 354.859 578.42 355.414 577.877 356.329C576.78 356.388 576.328 356.087 576.021 355.688L575.034 354.545C574.4 353.767 573.766 353.002 573.079 352.276C572.418 351.532 571.732 350.813 571.104 350.047C570.451 349.316 569.719 348.636 569.033 347.93C567.693 346.479 566.117 345.263 564.665 343.943C563.071 342.78 561.632 341.433 560.024 340.276C556.892 337.884 553.67 335.531 550.179 333.576L547.505 332.21L544.766 331.001L542.014 329.798L540.648 329.172C540.183 328.962 539.778 328.629 539.491 327.687ZM661.967 925.11C670.315 935.784 677.271 945.523 675.42 952.477C673.564 959.438 633.203 965.935 613.251 947.843C607.661 942.771 590.056 918.156 590.056 918.156C590.056 918.156 589.128 890.324 596.091 885.22C596.091 885.22 596.554 905.632 605.831 903.312C615.108 900.998 637.845 878.729 647.121 884.762C656.397 890.789 653.612 914.443 661.967 925.11ZM846.143 655.184V681.571C846.143 685.943 842.6 689.486 838.226 689.486H665.987L670.4 647.276H838.226C842.6 647.276 846.143 650.811 846.143 655.184ZM503.359 647.223C503.626 646.948 503.902 646.668 504.169 646.393C504.49 646.066 504.81 645.739 505.137 645.419C505.425 645.119 505.719 644.818 506.006 644.517C506.313 644.204 506.614 643.896 506.915 643.582C507.21 643.276 507.51 642.968 507.804 642.661C508.105 642.347 508.405 642.033 508.707 641.727C508.993 641.419 509.281 641.112 509.576 640.811C509.876 640.49 510.177 640.178 510.478 639.856C510.765 639.556 511.053 639.249 511.341 638.941C511.635 638.628 511.929 638.315 512.223 637.994C512.51 637.693 512.792 637.386 513.073 637.079C513.367 636.766 513.661 636.452 513.949 636.138C514.23 635.83 514.504 635.53 514.786 635.229C515.067 634.922 515.341 634.615 515.623 634.308C515.904 634 516.178 633.693 516.453 633.392C516.727 633.086 516.995 632.785 517.27 632.484C517.538 632.183 517.806 631.883 518.074 631.582C518.349 631.275 518.61 630.974 518.878 630.666C519.134 630.379 519.388 630.098 519.637 629.811C519.911 629.497 520.172 629.19 520.44 628.882C520.676 628.608 520.911 628.34 521.14 628.072C521.414 627.751 521.676 627.445 521.945 627.125C522.154 626.876 522.376 626.621 522.585 626.373C523.036 625.836 523.48 625.301 523.905 624.784C523.905 624.778 523.912 624.778 523.912 624.771C524.84 623.641 525.703 622.562 526.501 621.529C526.893 621.026 527.253 620.51 527.579 619.987C529.561 616.869 530.442 613.535 530.547 610.189C530.985 596.26 517.858 582.103 513.512 582.103C513.23 582.103 512.759 582.207 512.197 582.364C512.086 582.396 511.995 582.41 511.87 582.456C511.648 582.521 511.38 582.613 511.125 582.698C510.955 582.756 510.804 582.809 510.621 582.874C510.361 582.965 510.059 583.084 509.765 583.188C509.55 583.273 509.347 583.345 509.111 583.436C508.804 583.553 508.464 583.691 508.137 583.828C507.882 583.933 507.634 584.024 507.359 584.142C507.007 584.286 506.627 584.45 506.248 584.613C505.967 584.73 505.699 584.842 505.405 584.965C505.006 585.136 504.582 585.325 504.163 585.508C503.856 585.639 503.562 585.77 503.248 585.907C502.816 586.096 502.371 586.299 501.926 586.502C501.586 586.652 501.254 586.802 500.9 586.959C500.449 587.162 499.972 587.377 499.501 587.593C499.142 587.763 498.789 587.92 498.423 588.096C497.94 588.313 497.449 588.541 496.952 588.77C496.56 588.953 496.174 589.136 495.769 589.325C495.278 589.554 494.781 589.789 494.278 590.025C493.867 590.22 493.461 590.411 493.049 590.606C492.519 590.854 491.984 591.11 491.447 591.365C491.042 591.56 490.637 591.751 490.219 591.953C489.682 592.208 489.147 592.463 488.597 592.731C488.165 592.934 487.741 593.143 487.303 593.352C486.754 593.62 486.199 593.888 485.642 594.149C485.217 594.358 484.793 594.561 484.368 594.77C483.805 595.044 483.237 595.32 482.674 595.594C482.23 595.809 481.792 596.025 481.348 596.241C480.805 596.509 480.263 596.777 479.72 597.044C479.262 597.267 478.818 597.489 478.36 597.712C477.791 597.986 477.229 598.267 476.66 598.547C476.241 598.757 475.824 598.96 475.405 599.169C474.843 599.444 474.281 599.724 473.712 600.006C473.281 600.221 472.849 600.437 472.418 600.653C471.868 600.921 471.325 601.189 470.784 601.463C470.371 601.666 469.959 601.868 469.554 602.078C468.985 602.359 468.43 602.639 467.868 602.914C467.494 603.104 467.122 603.287 466.756 603.476C466.207 603.744 465.671 604.019 465.135 604.287C464.723 604.49 464.325 604.692 463.919 604.894C463.429 605.143 462.938 605.391 462.461 605.627C462.075 605.83 461.697 606.019 461.317 606.208C460.84 606.444 460.375 606.679 459.918 606.914C459.512 607.117 459.134 607.307 458.741 607.509C458.336 607.711 457.931 607.914 457.538 608.117C457.16 608.306 456.8 608.49 456.44 608.673C456.029 608.882 455.616 609.091 455.224 609.287C454.963 609.417 454.721 609.542 454.466 609.673C454.021 609.902 453.576 610.123 453.159 610.339C452.871 610.483 452.61 610.614 452.335 610.757C452.015 610.921 451.681 611.085 451.381 611.241C451.105 611.385 450.857 611.509 450.602 611.64C450.296 611.797 449.982 611.954 449.7 612.097C449.582 612.163 449.478 612.209 449.36 612.268C448.55 612.686 447.831 613.058 447.282 613.34C447.053 613.451 446.883 613.542 446.706 613.634C446.614 613.68 446.517 613.732 446.439 613.771C446.366 613.803 446.327 613.829 446.268 613.855C446.144 613.921 446.02 613.986 445.948 614.02C445.837 614.078 445.777 614.111 445.777 614.111C444.399 616.863 444.157 620.104 444.739 623.608C446.497 634.124 455.721 647.014 464.246 656.263C465.952 658.112 467.633 659.812 469.214 661.328C470.796 662.838 472.287 664.151 473.621 665.224C476.281 667.374 478.307 668.551 479.177 668.374C479.321 668.348 479.484 668.296 479.674 668.217C479.732 668.185 479.811 668.145 479.877 668.113C480.014 668.048 480.145 667.982 480.301 667.897C480.386 667.845 480.491 667.78 480.589 667.72C480.74 667.629 480.889 667.545 481.054 667.44C481.165 667.362 481.289 667.276 481.412 667.191C481.577 667.08 481.74 666.969 481.923 666.839C481.929 666.839 481.936 666.831 481.943 666.825C482.589 669.257 481.871 671.911 479.909 673.663L473.843 679.048V681.571C473.843 685.943 477.386 689.486 481.76 689.486H578.976C579.538 671.44 581.074 657.596 582.813 647.276H503.306C503.319 647.256 503.339 647.236 503.359 647.223Z" fill="#FF6747"/>
<path d="M610.407 172.374C609.505 172.361 609.146 172.661 608.969 172.995C608.773 173.335 608.596 173.669 608.439 174.015C608.119 174.714 607.87 175.433 607.681 176.158C607.328 177.629 607.061 179.113 606.884 180.61C606.439 183.59 606.308 186.662 606.694 189.682C607.106 192.695 608.132 195.584 609.387 198.304C609.963 199.688 610.715 200.976 611.453 202.271C611.838 202.905 612.323 203.486 612.774 204.082L613.473 204.951C613.683 205.251 614.061 205.46 615.042 205.297C615.677 204.506 615.709 204.088 615.572 203.76L615.245 202.734L614.538 200.754C614.146 199.414 613.532 198.173 613.178 196.839C612.316 194.218 611.878 191.544 611.238 188.923C610.734 186.277 610.25 183.597 610.218 180.851C610.204 179.485 610.387 178.133 610.61 176.786L610.917 174.766L611.061 173.753C611.113 173.407 611.021 173.041 610.407 172.374ZM629.706 151.027C630.424 151.549 630.81 151.575 631.124 151.458L632.058 151.125C632.666 150.883 633.275 150.635 633.863 150.354C635.026 149.778 636.203 149.223 637.413 148.739C639.857 147.817 642.362 147.111 644.799 146.32C647.258 145.582 649.631 144.66 652.083 143.942C653.312 143.608 654.547 143.301 655.789 143.007C656.411 142.843 657.031 142.641 657.659 142.504L658.607 142.256C658.927 142.196 659.234 141.948 659.548 140.993C659.196 140.072 658.842 139.862 658.502 139.844L657.456 139.699C656.757 139.601 656.063 139.588 655.371 139.601C653.972 139.575 652.612 139.798 651.24 139.967C648.52 140.405 645.774 140.916 643.244 141.987C640.701 143 638.308 144.353 635.968 145.726C634.785 146.386 633.595 147.026 632.432 147.713C631.856 148.06 631.3 148.458 630.764 148.883L629.98 149.549C629.718 149.772 629.541 150.144 629.706 151.027ZM665.033 141.87L665.236 142.079C665.379 142.203 665.524 142.294 665.673 142.347C665.981 142.439 666.288 142.516 666.582 142.647C667.178 142.961 667.752 143.36 668.361 143.53C668.969 143.759 669.623 143.596 670.269 143.517C670.589 143.471 670.91 143.457 671.243 143.334C671.407 143.282 671.577 143.19 671.754 143.091L672.008 142.928C672.094 142.902 672.204 142.687 672.407 141.765C672.46 140.824 672.414 140.588 672.341 140.536L672.132 140.307C671.995 140.17 671.858 140.033 671.708 139.935C671.42 139.725 671.12 139.627 670.825 139.49C670.224 139.248 669.635 138.909 668.995 138.974C668.361 138.967 667.693 139.196 667.04 139.34C666.719 139.385 666.406 139.373 666.085 139.379C665.922 139.393 665.758 139.438 665.595 139.516L665.333 139.667C665.249 139.713 665.138 139.922 664.948 140.739C664.915 141.568 664.961 141.798 665.033 141.87ZM611.741 161.87C609.878 159.302 608.844 157.687 608.844 157.687C608.844 157.687 632.857 141.34 651.991 136.47C671.126 131.601 697.223 143.079 698.962 158.033C699.014 158.484 699.047 158.955 699.066 159.445C699.857 159.824 700.616 160.236 701.322 160.7C702.21 161.008 702.969 161.413 703.485 161.864C725.32 180.97 710.572 203.062 703.812 211.121C703.701 207.963 703.584 204.865 703.485 201.871C703.375 198.375 703.107 195.048 702.707 191.884C698.759 190.983 692.934 188.152 687.018 184.858C682.102 189.094 675.368 192.813 666.255 195.258C654.959 198.29 643.616 193.022 634.026 185.565C631.248 189.498 627.744 195.721 625.894 203.957C625.201 207.023 624.547 210.63 623.953 214.232C621.017 212.212 615.905 209.643 613.172 213.833C613.107 213.938 613.049 214.055 612.983 214.167C605.733 196.121 598.352 170.1 611.741 161.87ZM687.064 215.252C686.109 212.853 683.396 211.683 680.997 212.63C678.591 213.584 677.422 216.304 678.376 218.702C679.33 221.102 682.043 222.271 684.442 221.324C686.841 220.37 688.018 217.65 687.064 215.252ZM654.508 221.48C656.437 219.774 656.613 216.813 654.894 214.885C653.181 212.958 650.226 212.781 648.298 214.493C646.369 216.206 646.192 219.16 647.905 221.094C649.618 223.023 652.572 223.2 654.508 221.48ZM692.823 210.023C693.215 210.009 693.608 209.97 694.013 209.938L694.614 209.866C694.811 209.872 695.039 209.695 695.483 208.846C695.543 207.885 695.379 207.604 695.183 207.52L694.608 207.186C694.215 206.977 693.817 206.787 693.418 206.637C692.608 206.329 691.771 206.16 690.927 205.983C689.247 205.649 687.495 205.362 685.75 205.604C684.004 205.788 682.298 206.408 680.683 207.075C679.866 207.401 679.049 207.695 678.265 208.108C677.872 208.297 677.5 208.532 677.173 208.846L676.682 209.31C676.525 209.46 676.44 209.761 676.696 210.566C677.303 211.18 677.571 211.29 677.768 211.252L678.35 211.147L679.441 210.866C680.128 210.604 680.847 210.415 681.579 210.29C683.076 210.134 684.56 210.186 686.038 210.199C687.515 210.264 688.998 210.043 690.522 210.029C691.286 210.009 692.045 210.055 692.823 210.023ZM656.482 254.874L657.332 255.286C657.908 255.527 658.476 255.796 659.084 255.933C660.3 256.201 661.502 256.541 662.739 256.75C665.17 257.364 667.7 257.744 670.243 257.782C672.806 257.835 675.329 257.253 677.768 256.528C678.99 256.168 680.199 255.744 681.35 255.175C681.925 254.887 682.481 254.573 683.017 254.207L683.815 253.632C684.082 253.469 684.292 253.103 684.102 252.135C683.384 251.455 683.056 251.364 682.775 251.449L681.919 251.612L680.219 251.939C679.088 252.142 677.99 252.423 676.859 252.567C674.603 252.913 672.335 252.952 670.08 253.187C667.824 253.305 665.516 253.573 663.19 253.442C662.019 253.423 660.882 253.155 659.725 253.004C659.143 252.939 658.574 252.828 657.979 252.782L657.083 252.73C656.776 252.718 656.437 252.855 655.906 253.573C655.959 254.449 656.201 254.736 656.482 254.874ZM670.78 243.318L670.295 243.619L669.309 244.22C668.655 244.619 667.975 244.985 667.327 245.409C666.673 245.821 666.027 246.234 665.405 246.704L664.484 247.423C664.176 247.664 663.948 248.037 664.019 248.958C664.758 249.501 665.203 249.501 665.569 249.37L666.667 248.966C667.386 248.684 668.086 248.351 668.778 248.018C669.478 247.691 670.146 247.312 670.832 246.958L671.864 246.443L672.394 246.174C672.609 246.057 672.838 245.939 673.048 245.795C674.774 244.717 676.022 242.808 676.291 240.684C676.356 240.154 676.368 239.611 676.31 239.076L676.166 237.841L675.839 235.553C675.408 232.501 674.584 229.52 673.858 226.526C673.486 225.029 673.14 223.526 672.681 222.043C672.479 221.304 672.217 220.565 671.963 219.833L671.551 218.736C671.433 218.362 671.158 218.03 670.152 217.827C669.289 218.382 669.152 218.801 669.178 219.18L669.197 220.356C669.223 221.134 669.249 221.912 669.328 222.677C669.446 224.226 669.668 225.749 669.864 227.278C670.289 230.33 670.609 233.403 671.315 236.402L671.845 238.651L672.112 239.69C672.178 239.919 672.211 240.148 672.224 240.383C672.289 241.337 671.884 242.371 671.1 243.076C671.001 243.168 670.884 243.233 670.78 243.318ZM654.717 212.546C655.632 212.598 656.548 212.741 657.482 212.807L658.908 212.866L659.633 212.879C659.868 212.912 660.15 212.761 660.685 211.958C660.771 210.99 660.594 210.689 660.365 210.578L659.699 210.166C659.248 209.918 658.796 209.663 658.319 209.474C657.377 209.069 656.397 208.8 655.403 208.538C653.423 208.042 651.357 207.565 649.232 207.768C647.115 207.918 644.996 208.493 643.028 209.389C642.054 209.866 641.041 210.252 640.159 210.905C639.714 211.226 639.269 211.526 638.929 211.984L638.433 212.637C638.276 212.853 638.217 213.199 638.622 213.944C639.394 214.369 639.701 214.409 639.91 214.304L640.525 214.023C640.884 213.794 641.328 213.676 641.701 213.473C642.42 213.036 643.27 212.801 644.087 212.558C645.801 212.226 647.572 212.336 649.317 212.369C651.069 212.467 652.88 212.409 654.717 212.546ZM700.021 431.633C700.014 431.653 700.014 431.659 700.021 431.633V431.633ZM761.719 432.848C761.648 434.123 762.629 435.214 763.897 435.28C764.053 435.293 779.43 436.26 785.228 446.202C785.66 446.934 786.431 447.346 787.229 447.346C787.621 447.346 788.02 447.241 788.386 447.032C789.483 446.392 789.857 444.973 789.216 443.875C782.175 431.81 764.89 430.718 764.158 430.679C762.858 430.535 761.792 431.581 761.719 432.848ZM718.645 441.261C719.247 441.012 719.888 441.078 720.43 441.34C720.581 441.247 720.731 441.183 720.881 441.163L722.143 440.895C722.979 440.738 723.823 440.568 724.666 440.457C726.346 440.182 728.033 440.012 729.72 439.803C733.093 439.404 736.447 438.888 739.819 438.698C743.18 438.443 746.58 438.397 749.926 438.103C751.594 437.94 753.254 437.685 754.868 437.378C755.686 437.24 756.496 437.097 757.268 436.946C757.366 436.92 757.464 436.914 757.562 436.9C757.568 435.515 757.438 434.077 757.222 432.653C757.202 432.561 757.183 432.47 757.17 432.378C757.117 432.371 757.065 432.371 757.013 432.365L755.196 432.11C753.999 431.894 752.731 432.019 751.528 431.874L749.711 431.764L747.867 431.776C746.644 431.81 745.429 431.705 744.2 431.842L740.525 432.116L736.865 432.593C734.433 432.953 731.982 433.28 729.549 433.737C724.666 434.542 719.764 435.528 714.919 436.771C712.494 437.405 710.121 438.189 707.741 438.98C706.544 439.346 705.368 439.764 704.159 440.11L702.348 440.64C702.067 440.724 701.767 440.771 701.439 440.751C701.335 441.058 701.184 441.346 700.942 441.568L700.877 441.626C700.288 442.169 699.622 443.097 699.478 443.744C699.314 444.437 699.393 444.803 699.884 445.398C700.191 446.13 702.832 446.09 705.009 445.633C709.558 444.738 714.226 443.052 718.645 441.261ZM699.753 435.489C699.922 436.117 700.145 436.757 700.413 437.391C700.616 437.882 700.857 438.378 701.099 438.829C701.23 438.731 701.367 438.646 701.505 438.58L703.218 437.698C704.368 437.149 705.538 436.633 706.727 436.176C709.107 435.24 711.514 434.404 713.932 433.574C718.744 431.874 723.627 430.227 728.687 429.214C733.746 428.208 738.918 427.646 744.135 427.783C745.429 427.73 746.743 427.921 748.037 427.979C749.345 428.031 750.639 428.215 751.926 428.489C753.214 428.75 754.503 428.927 755.751 429.391L756.653 429.704C756.307 428.142 755.888 426.587 755.411 425.044C755.019 423.783 754.594 422.535 754.13 421.292L753.94 420.763C753.888 420.58 753.856 420.384 753.829 420.188C753.751 420.175 753.679 420.155 753.6 420.149C752.842 420.057 752.136 419.868 751.391 419.749C750.639 419.665 749.894 419.515 749.149 419.397L746.854 419.214C743.769 419.129 740.664 419.312 737.558 419.391C734.446 419.534 731.321 419.364 728.19 419.377C726.621 419.377 725.052 419.411 723.476 419.358C722.692 419.358 721.901 419.299 721.104 419.254L720.156 419.181C719.737 419.463 719.273 419.749 718.756 420.005C718.45 420.155 718.122 420.312 717.816 420.437L717.031 420.783L715.448 421.417C713.331 422.253 711.258 423.175 709.252 424.195C707.264 425.234 705.303 426.325 703.59 427.639C702.733 428.287 701.916 428.973 701.256 429.718C700.91 430.077 700.622 430.462 700.393 430.828C700.288 431.012 700.171 431.201 700.113 431.358C700.073 431.45 700.053 431.515 700.04 431.567C700.027 431.581 700.021 431.613 700.021 431.633C700.021 431.613 700.021 431.581 700.027 431.522L699.746 432.43C699.413 432.999 699.38 434.228 699.753 435.489ZM719.534 410.762C719.548 412.494 720.384 414.338 721.078 416.403C721.79 416.234 722.502 416.07 723.215 415.959C724.79 415.659 726.379 415.502 727.967 415.319C731.151 414.999 734.354 414.651 737.571 414.796C740.787 414.88 744.01 415.337 747.214 415.9C748.821 416.155 750.437 416.429 752.045 416.842C752.836 417.057 753.626 417.365 754.391 417.678C754.685 417.051 754.993 416.508 755.294 415.985L756.294 414.273C756.405 414.076 756.503 413.88 756.588 413.71C756.562 413.691 756.542 413.671 756.522 413.645C756.339 413.449 756.105 413.24 755.869 413.031C755.405 412.619 754.902 412.201 754.391 411.796C752.319 410.207 750.09 408.671 747.867 407.481C747.324 407.187 746.736 406.946 746.37 406.835C746.312 406.841 746.35 406.809 746.226 406.801L745.723 406.795L744.716 406.801L740.682 406.861C735.316 407.018 729.903 407.22 724.692 407.998C723.411 408.201 722.097 408.436 721.005 408.835C720.45 409.03 719.993 409.292 719.933 409.455C719.685 409.795 719.587 410.253 719.534 410.762ZM757.281 439.954C757.301 439.875 757.301 439.783 757.32 439.705C756.725 439.927 756.131 440.117 755.529 440.28C754.685 440.548 753.829 440.698 752.98 440.875C752.129 441.064 751.28 441.254 750.437 441.404C747.057 442.163 743.67 442.849 740.264 443.274C736.859 443.758 733.426 443.764 730.001 443.855C728.288 443.889 726.581 443.934 724.862 443.862C724.006 443.849 723.15 443.784 722.287 443.706L721.613 443.64C721.587 443.79 721.587 443.941 721.528 444.084L721.418 444.372C721.241 444.849 721.188 445.156 721.685 445.915C722.13 446.607 722.999 447.307 723.935 447.83C724.856 448.327 726.013 448.77 726.883 448.816C728 448.934 729.327 448.921 730.603 448.895C735.799 448.699 741.114 447.915 746.2 446.725C748.73 446.124 751.247 445.398 753.509 444.372C754.012 444.098 754.673 443.836 755.059 443.555C755.365 443.247 755.83 443.117 756.045 442.686L756.477 442.149C756.601 441.94 756.679 441.692 756.791 441.469C757.039 441.045 757.15 440.489 757.281 439.954ZM669.197 486.059C668.935 486.341 668.589 486.556 668.19 486.674C615.669 518.8 544.583 563.658 543.505 564.344C543.125 564.579 542.694 564.696 542.275 564.696C541.511 564.696 540.759 564.318 540.32 563.625C539.64 562.547 539.961 561.121 541.04 560.441C545.099 557.88 605.014 520.067 654.789 489.478C620.2 495.048 562.679 495.119 559.9 495.119C558.625 495.119 557.592 494.086 557.592 492.811C557.592 491.537 558.625 490.505 559.9 490.505C560.665 490.505 636.4 490.413 666.321 482.406C692.718 466.268 714.409 453.379 720.299 450.862C719.424 450.202 718.599 449.411 717.913 448.359C717.573 447.842 717.279 447.228 717.083 446.549C715.788 447.006 714.494 447.438 713.174 447.849C710.755 448.587 708.297 449.254 705.708 449.685C704.401 449.888 703.073 450.052 701.602 449.993L700.471 449.902C700.067 449.836 699.622 449.705 699.204 449.588C698.818 449.522 698.282 449.156 697.837 448.869C697.32 448.548 697.145 448.241 696.837 447.921C695.666 446.679 695.137 444.32 695.752 442.653C696.137 441.489 696.686 440.607 697.366 439.817C697.216 439.483 697.073 439.149 696.935 438.803C696.628 438.025 696.36 437.214 696.17 436.359C695.974 435.508 695.837 434.607 695.876 433.613C695.908 432.764 696.099 431.81 696.582 430.907C696.608 430.764 696.648 430.659 696.686 430.535C696.759 430.313 696.837 430.11 696.922 429.939C697.085 429.567 697.288 429.267 697.477 428.959C697.883 428.371 698.321 427.848 698.779 427.384C699.694 426.443 700.681 425.684 701.688 424.986C703.715 423.593 705.872 422.574 708.023 421.6C710.186 420.665 712.383 419.835 714.599 419.109L716.266 418.58L717.109 418.345C717.351 418.286 717.573 418.279 717.816 418.246C718.09 418.22 718.391 418.22 718.704 418.214C718.678 418.162 718.652 418.135 718.619 418.077C718.913 417.089 719.293 416.842 719.685 416.756L719.855 416.711C718.345 415.208 717.364 413.188 717.207 410.736C717.227 409.899 717.371 408.978 717.868 408.175C718.496 407.135 719.378 406.795 720.044 406.487C721.47 405.88 722.836 405.579 724.209 405.286C729.694 404.278 735.139 403.978 740.591 403.749L743.781 403.658C743.677 403.39 743.624 403.103 743.624 402.801C744.553 326.301 770.454 295.451 771.559 294.176C772.389 293.209 773.846 293.104 774.808 293.935C775.776 294.764 775.879 296.222 775.056 297.19C774.794 297.49 749.149 328.249 748.24 402.854C748.234 403.272 748.115 403.652 747.92 403.984C748.443 404.181 748.894 404.39 749.332 404.612C751.908 405.946 754.163 407.475 756.418 409.155C756.98 409.573 757.536 409.998 758.091 410.468C758.373 410.71 758.647 410.939 758.935 411.227C759.085 411.37 759.21 411.475 759.387 411.684L759.628 411.972L759.752 412.136C759.83 412.259 759.902 412.384 759.961 412.521C760.242 413.063 760.21 413.659 760.138 414.024C760.073 414.345 759.987 414.625 759.902 414.816C759.739 415.259 759.569 415.586 759.399 415.926L758.405 417.75C758.091 418.319 757.791 418.888 757.602 419.371C757.548 419.514 757.51 419.639 757.484 419.731L757.576 419.952C758.098 421.234 758.582 422.541 759.039 423.855C759.935 426.489 760.707 429.175 761.223 431.979C761.707 434.783 762.021 437.698 761.432 440.823C761.262 441.607 761.105 442.392 760.719 443.175C760.544 443.561 760.393 443.96 760.184 444.339L759.393 445.424C758.922 446.195 758.091 446.679 757.385 447.255C756.673 447.751 756.052 447.993 755.372 448.372C752.711 449.64 750.012 450.47 747.298 451.176C741.847 452.516 736.382 453.3 730.752 453.542C729.327 453.568 727.935 453.614 726.353 453.431C725.34 453.313 724.464 453.065 723.633 452.731C723.712 453.705 723.182 454.66 722.235 455.052C716.802 457.314 695.405 470.039 669.197 486.059ZM552.67 488.596C553.042 489.485 553.898 490.021 554.801 490.021C555.095 490.021 555.395 489.962 555.689 489.838C556.226 489.616 599.81 471.222 638.028 439.215L638.151 433.064C599.849 466.196 554.461 485.353 553.912 485.582C552.735 486.073 552.179 487.426 552.67 488.596ZM539.954 432.038C540.451 432.038 540.954 431.881 541.373 431.548C541.883 431.15 589.193 394.566 639.139 383.167L639.237 378.408C621.854 382.252 604.785 389.095 589.775 396.5C589.364 396.115 588.807 395.886 588.199 395.886C587.291 395.886 586.356 395.913 585.408 395.971C586.702 297.445 550.12 284.261 548.558 283.745C547.355 283.352 546.047 284.012 545.648 285.222C545.25 286.431 545.904 287.732 547.119 288.13C547.465 288.248 582.14 300.765 580.793 396.305C580.793 396.351 580.793 396.396 580.793 396.448C566.999 398.37 551.885 404.56 551.133 404.873C549.956 405.357 549.395 406.704 549.884 407.887C550.369 409.064 551.715 409.625 552.898 409.135C553.069 409.064 567.705 403.069 580.806 401.109C556.095 414.319 538.843 427.672 538.536 427.913C537.529 428.698 537.352 430.149 538.137 431.15C538.588 431.737 539.268 432.038 539.954 432.038ZM597.012 872.232C596.823 871.199 596.64 870.193 596.449 869.167C596.064 873.755 595.724 879.546 595.777 885.494C595.881 885.403 595.98 885.304 596.091 885.22C596.091 885.22 596.554 905.632 605.831 903.312C614.702 901.096 635.883 880.645 645.827 884.148C645.709 878.997 645.584 874.069 645.479 870.219L597.012 872.232ZM840.462 589.757H752.202C747.815 593.018 744.127 594.946 741.761 595.319C734.008 596.548 699.818 596.652 672.832 596.535L674.957 603.673L668.896 661.655H840.462C851.797 661.655 860.989 652.465 860.989 641.138V610.274C860.989 598.94 851.797 589.757 840.462 589.757ZM474.647 589.757C463.462 589.757 454.387 598.712 454.152 609.829C464.226 604.711 481.452 596.044 494.847 589.757H474.647ZM559.436 632.197C559.436 632.197 553.558 627.451 545.564 617.569C545.537 617.542 545.511 617.509 545.491 617.483C545.099 617 544.707 616.503 544.308 616C544.262 615.947 544.217 615.882 544.171 615.823C543.779 615.326 543.38 614.817 542.982 614.294C542.929 614.228 542.877 614.157 542.831 614.091C542.419 613.562 542.008 613.012 541.589 612.457C541.563 612.417 541.537 612.385 541.511 612.346C538.837 608.751 536.018 604.647 533.169 600.025C533.129 599.96 533.084 599.887 533.038 599.816C532.613 599.123 532.181 598.404 531.75 597.686C531.678 597.561 531.606 597.443 531.535 597.319C531.116 596.62 530.698 595.901 530.279 595.175C530.195 595.032 530.116 594.888 530.03 594.751C529.613 594.012 529.194 593.274 528.776 592.522C528.716 592.403 528.651 592.293 528.593 592.182C528.155 591.385 527.71 590.58 527.272 589.757C525.2 585.861 523.147 581.698 521.166 577.233L512.844 582.195C513.112 582.135 513.341 582.103 513.512 582.103C515.518 582.103 519.401 585.136 522.957 589.763C524.121 591.273 525.245 592.96 526.259 594.763C526.291 594.829 526.324 594.888 526.357 594.946C526.651 595.483 526.939 596.025 527.213 596.574C527.253 596.652 527.285 596.724 527.324 596.803C527.919 598.025 528.462 599.287 528.919 600.587C528.952 600.685 528.985 600.79 529.018 600.895C529.201 601.418 529.364 601.941 529.515 602.476C529.561 602.639 529.606 602.81 529.652 602.979C529.789 603.482 529.907 603.999 530.011 604.509C530.044 604.653 530.076 604.796 530.102 604.947C530.233 605.601 530.332 606.254 530.41 606.921C530.416 606.973 530.416 607.025 530.423 607.084C530.482 607.666 530.521 608.26 530.541 608.849C530.547 609.051 530.541 609.248 530.541 609.451C530.541 609.908 530.527 610.372 530.501 610.836C530.488 611.045 530.475 611.254 530.456 611.47C530.41 611.98 530.338 612.489 530.253 613.006C530.227 613.143 530.213 613.28 530.187 613.418C530.064 614.058 529.907 614.692 529.717 615.326C529.665 615.489 529.599 615.646 529.547 615.81C529.39 616.287 529.213 616.758 529.018 617.221C528.926 617.431 528.828 617.64 528.73 617.849C528.527 618.294 528.299 618.732 528.05 619.163C527.945 619.353 527.841 619.542 527.73 619.725C527.357 620.339 526.951 620.941 526.501 621.529C526.004 622.176 525.468 622.85 524.919 623.536C524.748 623.739 524.579 623.948 524.408 624.156C514.936 635.817 498.652 652.458 488.251 661.655H580.845C583.996 632.739 589.592 621.758 589.592 621.758C586.298 620.275 583.185 618.758 580.217 617.221L559.436 632.197ZM503.457 925.11H529.436V689.486H503.457V925.11ZM789.235 689.486H815.214V923.998H789.235V689.486Z" fill="#FF6747"/>
</svg>
