<svg width="106" height="23" viewBox="0 0 106 23" fill="none" xmlns="http://www.w3.org/2000/svg">
<path d="M48.4345 22.3474V0.918384H51.4094V10.1328H62.8443V0.918384H65.8192V22.3474H62.8443V12.7349H51.4094V22.3474H48.4345Z" fill="#E75F42"/>
<path d="M77.8394 22.7147C76.414 22.7147 75.1331 22.429 73.9968 21.8576C72.8812 21.2657 72.0032 20.4494 71.3628 19.4085C70.743 18.3677 70.4331 17.1534 70.4331 15.7656V6.73482H73.3151V15.735C73.3151 16.6738 73.5217 17.4901 73.9349 18.184C74.3481 18.8575 74.8955 19.3779 75.5773 19.7453C76.2797 20.1126 77.0234 20.2963 77.8085 20.2963C78.6142 20.2963 79.3579 20.1126 80.0396 19.7453C80.7421 19.3779 81.2999 18.8575 81.713 18.184C82.1469 17.4901 82.3638 16.6738 82.3638 15.735V6.73482H85.2458V15.7656C85.2458 17.1534 84.9255 18.3677 84.2851 19.4085C83.6447 20.4494 82.7667 21.2657 81.6511 21.8576C80.5355 22.429 79.2649 22.7147 77.8394 22.7147Z" fill="#E75F42"/>
<path d="M97.7659 22.7147C96.2372 22.7147 94.8633 22.3882 93.6444 21.7351C92.4255 21.082 91.4546 20.1432 90.7315 18.9187C90.0291 17.6738 89.6779 16.184 89.6779 14.4493V0H92.5288V9.52059H92.5908C92.942 8.88792 93.3965 8.33689 93.9543 7.8675C94.5328 7.3981 95.1835 7.03075 95.9066 6.76543C96.6503 6.50012 97.4251 6.36747 98.2308 6.36747C99.6976 6.36747 101.009 6.694 102.166 7.34708C103.323 8.00015 104.232 8.92874 104.893 10.1328C105.575 11.3165 105.916 12.7247 105.916 14.3574C105.916 15.6432 105.709 16.8064 105.296 17.8473C104.904 18.8677 104.346 19.7453 103.623 20.48C102.9 21.2147 102.042 21.7759 101.051 22.1637C100.059 22.531 98.9642 22.7147 97.7659 22.7147ZM97.7659 20.2963C98.7369 20.2963 99.6149 20.0616 100.4 19.5922C101.206 19.1228 101.846 18.4595 102.321 17.6024C102.796 16.7452 103.034 15.7248 103.034 14.5411C103.034 13.3982 102.796 12.3982 102.321 11.541C101.867 10.6839 101.247 10.0104 100.462 9.52059C99.6769 9.03078 98.7886 8.78588 97.7969 8.78588C96.8259 8.78588 95.9376 9.02058 95.1319 9.48998C94.3468 9.95937 93.7167 10.6329 93.2416 11.5104C92.7871 12.3676 92.5598 13.388 92.5598 14.5717C92.5598 15.735 92.7871 16.7452 93.2416 17.6024C93.7167 18.4595 94.3468 19.1228 95.1319 19.5922C95.9376 20.0616 96.8156 20.2963 97.7659 20.2963Z" fill="#E75F42"/>
<path d="M8.61487 22.7647C6.94148 22.7647 5.45402 22.4178 4.15249 21.7239C2.85097 21.03 1.82834 20.03 1.08461 18.7239C0.361535 17.4177 0 15.8769 0 14.1013V0.968412H2.97492V14.4074C2.97492 15.4483 3.20217 16.4075 3.65667 17.285C4.11117 18.1626 4.76194 18.8667 5.60896 19.3973C6.45599 19.9075 7.45796 20.1627 8.61487 20.1627C9.77178 20.1627 10.7738 19.9075 11.6208 19.3973C12.4678 18.8667 13.1082 18.1626 13.5421 17.285C13.9966 16.4075 14.2238 15.4483 14.2238 14.4074V0.968412H17.1988V14.1013C17.1988 15.8769 16.8269 17.4177 16.0832 18.7239C15.3601 20.03 14.3478 21.03 13.0463 21.7239C11.7654 22.4178 10.2883 22.7647 8.61487 22.7647Z" fill="#E75F42"/>
<path d="M21.7284 22.3974V13.3666C21.7284 11.9788 22.0383 10.7645 22.6581 9.72368C23.2985 8.68284 24.1765 7.87671 25.2921 7.30527C26.4077 6.71342 27.6783 6.4175 29.1038 6.4175C30.5499 6.4175 31.8204 6.71342 32.9154 7.30527C34.031 7.87671 34.8987 8.68284 35.5184 9.72368C36.1589 10.7645 36.4791 11.9788 36.4791 13.3666V17.4993H33.6281V13.3972C33.6281 12.4584 33.4112 11.6523 32.9774 10.9788C32.5642 10.2849 32.0064 9.75429 31.304 9.38694C30.6222 9.01959 29.8888 8.83591 29.1038 8.83591C28.3187 8.83591 27.575 9.01959 26.8726 9.38694C26.1908 9.75429 25.633 10.2849 25.1992 10.9788C24.786 11.6523 24.5794 12.4584 24.5794 13.3972V22.3974H21.7284Z" fill="#E75F42"/>
<path d="M41.0056 17.4993V6.78485H43.8876V17.4993H41.0056ZM42.4621 4.30521C41.9456 4.30521 41.4911 4.12153 41.0986 3.75418C40.7267 3.36642 40.5408 2.91743 40.5408 2.40721C40.5408 1.897 40.7267 1.45822 41.0986 1.09086C41.4911 0.703101 41.9456 0.50922 42.4621 0.50922C42.9786 0.50922 43.4227 0.703101 43.7946 1.09086C44.1871 1.45822 44.3834 1.897 44.3834 2.40721C44.3834 2.91743 44.1871 3.36642 43.7946 3.75418C43.4227 4.12153 42.9786 4.30521 42.4621 4.30521Z" fill="#E75F42"/>
<path d="M43.8876 17.4993C43.8876 18.8471 43.3454 20.1397 42.3806 21.0927C41.4159 22.0457 40.1075 22.5811 38.7432 22.5811C37.3789 22.5811 36.0705 22.0457 35.1057 21.0927C34.141 20.1397 33.6281 18.8471 33.6281 17.4993H36.4791C36.4791 18.0938 36.7133 18.6639 37.1388 19.0842C37.5643 19.5046 38.1414 19.7407 38.7432 19.7407C39.3449 19.7407 39.922 19.5046 40.3475 19.0842C40.773 18.6639 41.0056 18.0938 41.0056 17.4993H43.8876Z" fill="#E75F42"/>
</svg>
