<svg width="32" height="32" viewBox="0 0 32 32" fill="none" xmlns="http://www.w3.org/2000/svg">
<path d="M28.08 0C29.0109 0 29.9037 0.369802 30.562 1.02806C31.2202 1.68631 31.59 2.57909 31.59 3.51V28.08C31.59 29.0109 31.2202 29.9037 30.562 30.562C29.9037 31.2202 29.0109 31.59 28.08 31.59H3.51C2.57909 31.59 1.68631 31.2202 1.02806 30.562C0.369802 29.9037 0 29.0109 0 28.08V3.51C0 2.57909 0.369802 1.68631 1.02806 1.02806C1.68631 0.369802 2.57909 0 3.51 0H28.08ZM27.2025 27.2025V17.901C27.2025 16.3836 26.5997 14.9284 25.5268 13.8554C24.4538 12.7825 22.9986 12.1797 21.4812 12.1797C19.9895 12.1797 18.252 13.0923 17.4096 14.4612V12.5132H12.5132V27.2025H17.4096V18.5504C17.4096 17.199 18.4977 16.0934 19.8491 16.0934C20.5007 16.0934 21.1256 16.3522 21.5864 16.813C22.0472 17.2738 22.3061 17.8987 22.3061 18.5504V27.2025H27.2025ZM6.8094 9.7578C7.59137 9.7578 8.3413 9.44717 8.89424 8.89424C9.44717 8.3413 9.7578 7.59137 9.7578 6.8094C9.7578 5.17725 8.44155 3.84345 6.8094 3.84345C6.02278 3.84345 5.26838 4.15593 4.71216 4.71216C4.15593 5.26838 3.84345 6.02278 3.84345 6.8094C3.84345 8.44155 5.17725 9.7578 6.8094 9.7578ZM9.24885 27.2025V12.5132H4.3875V27.2025H9.24885Z" fill="#FF6747"/>
</svg>
