<svg width="38" height="38" viewBox="0 0 38 38" fill="none" xmlns="http://www.w3.org/2000/svg">
<g filter="url(#filter0_d_1838_490)">
<path d="M9.29092 0.17803C9.64007 0.0285452 10.0219 -0.0282524 10.3995 0.0131377C10.777 0.0545278 11.1375 0.192703 11.446 0.414279C13.0339 1.57347 14.2941 3.12957 15.3779 4.64786L16.4082 6.14096L16.8903 6.8497C17.1694 7.25592 17.3066 7.74296 17.2803 8.23512C17.2541 8.72728 17.0661 9.19701 16.7453 9.57129L16.509 9.81069L13.5978 11.9716C13.4593 12.0743 13.362 12.223 13.3233 12.391C13.2846 12.559 13.3071 12.7353 13.3867 12.8882C14.0484 14.0852 15.2173 15.8713 16.5594 17.2132C17.9048 18.5551 19.7731 19.8025 21.0522 20.5364C21.3295 20.6939 21.6635 20.6435 21.8903 20.4387L22.01 20.297L23.9036 17.4148C24.2507 16.9511 24.7641 16.6402 25.3359 16.5473C25.9077 16.4545 26.4931 16.587 26.9691 16.9171L28.6799 18.1109C30.3813 19.3237 32.0165 20.6278 33.3114 22.2815C33.551 22.5923 33.7033 22.9613 33.7526 23.3506C33.8018 23.7399 33.7463 24.1353 33.5918 24.4959C32.3441 27.4065 29.184 29.8856 25.9011 29.7659L25.4001 29.7344L24.7984 29.6777L24.4581 29.6336L23.7082 29.5076C20.797 28.9595 16.131 27.3089 11.2947 22.4768C6.46164 17.6416 4.81071 12.9764 4.2625 10.0658L4.13647 9.31614L4.05771 8.66095L4.01675 8.1097L4.00414 7.87345C3.88442 4.58486 6.37657 1.42542 9.29092 0.17803Z" fill="#FF6747"/>
</g>
<defs>
<filter id="filter0_d_1838_490" x="0" y="0" width="37.77" height="37.77" filterUnits="userSpaceOnUse" color-interpolation-filters="sRGB">
<feFlood flood-opacity="0" result="BackgroundImageFix"/>
<feColorMatrix in="SourceAlpha" type="matrix" values="0 0 0 0 0 0 0 0 0 0 0 0 0 0 0 0 0 0 127 0" result="hardAlpha"/>
<feOffset dy="4"/>
<feGaussianBlur stdDeviation="2"/>
<feComposite in2="hardAlpha" operator="out"/>
<feColorMatrix type="matrix" values="0 0 0 0 0 0 0 0 0 0 0 0 0 0 0 0 0 0 0.25 0"/>
<feBlend mode="normal" in2="BackgroundImageFix" result="effect1_dropShadow_1838_490"/>
<feBlend mode="normal" in="SourceGraphic" in2="effect1_dropShadow_1838_490" result="shape"/>
</filter>
</defs>
</svg>
