<svg width="871" height="974" viewBox="0 0 871 974" fill="none" xmlns="http://www.w3.org/2000/svg">
<g opacity="0.04">
<path d="M0 0L225.982 62.5122C266.787 73.7998 295.042 110.935 295.042 153.276V659.205L72.7044 607.163C30.1173 597.195 0 559.211 0 515.469V0Z" fill="#DBE1F4"/>
<path d="M721.912 173.187C721.912 116.975 783.707 34.6068 839.555 40.9389L1036.55 71.8968V686.563C1036.55 742.774 994.264 783.293 921.035 771.094C847.806 758.896 721.912 735.22 721.912 735.22V173.187Z" fill="#DBE1F4"/>
<path d="M379.563 931.589C331.545 926.645 295.042 886.188 295.042 837.911V659.205L721.912 735.22V862.47C721.912 918.294 681.581 978.862 626.056 973.146L379.563 931.589Z" fill="#DBE1F4"/>
</g>
</svg>
