<svg width="33" height="32" viewBox="0 0 33 32" fill="none" xmlns="http://www.w3.org/2000/svg">
<path d="M16.1872 0C14.0615 0 11.9565 0.418694 9.99262 1.23218C8.0287 2.04566 6.24424 3.238 4.74112 4.74112C1.70543 7.7768 0 11.8941 0 16.1872C0 23.3419 4.64572 29.4121 11.072 31.565C11.8814 31.6945 12.1404 31.1927 12.1404 30.7557V28.02C7.65654 28.9913 6.7015 25.8509 6.7015 25.8509C5.95688 23.9732 4.90472 23.4714 4.90472 23.4714C3.43168 22.4678 5.01803 22.5002 5.01803 22.5002C6.63675 22.6135 7.49467 24.1675 7.49467 24.1675C8.90295 26.6279 11.2825 25.8995 12.2051 25.511C12.3508 24.4588 12.7717 23.7466 13.2249 23.3419C9.63138 22.9372 5.85976 21.5451 5.85976 15.3778C5.85976 13.581 6.47487 12.1404 7.52704 10.9911C7.36517 10.5864 6.79862 8.90295 7.68891 6.71768C7.68891 6.71768 9.04864 6.28063 12.1404 8.36878C13.4192 8.01266 14.8113 7.8346 16.1872 7.8346C17.5631 7.8346 18.9552 8.01266 20.234 8.36878C23.3257 6.28063 24.6855 6.71768 24.6855 6.71768C25.5758 8.90295 25.0092 10.5864 24.8473 10.9911C25.8995 12.1404 26.5146 13.581 26.5146 15.3778C26.5146 21.5613 22.7268 22.9211 19.1171 23.3257C19.6998 23.8275 20.234 24.815 20.234 26.3204V30.7557C20.234 31.1927 20.493 31.7107 21.3185 31.565C27.7448 29.3959 32.3744 23.3419 32.3744 16.1872C32.3744 14.0615 31.9557 11.9565 31.1422 9.99262C30.3287 8.0287 29.1364 6.24424 27.6333 4.74112C26.1301 3.238 24.3457 2.04566 22.3818 1.23218C20.4178 0.418694 18.3129 0 16.1872 0Z" fill="#FF6747"/>
</svg>
