<svg width="152" height="205" viewBox="0 0 152 205" fill="none" xmlns="http://www.w3.org/2000/svg">
<path d="M0 0H39C40.6569 0 42 1.34717 42 3.00898V204.611H0V0Z" fill="url(#paint0_linear_1584_61)"/>
<path d="M3 42.1258C1.34314 42.1258 0 40.7786 0 39.1168V0L151 1.03206e-06V39.1168C151 40.7786 149.657 42.1257 148 42.1257L3 42.1258Z" fill="url(#paint1_linear_1584_61)"/>
<path d="M109 3.00898C109 1.34716 110.343 3.30049e-08 112 7.37184e-08L151 1.03206e-06V155.464H112C110.343 155.464 109 154.117 109 152.455V3.00898Z" fill="url(#paint2_linear_1584_61)"/>
<path d="M150.497 113.338C150.775 113.338 151 113.564 151 113.843V155.464H77.2857C77.1279 155.464 77 155.336 77 155.178C77 132.07 95.6761 113.338 118.714 113.338H150.497Z" fill="url(#paint3_linear_1584_61)"/>
<path d="M113.292 182.742C113.292 192.821 105.168 200.992 95.1461 200.992C85.1243 200.992 77 192.821 77 182.742V164.491C87.0218 164.491 113.292 172.662 113.292 182.742Z" fill="#E75F42"/>
<path d="M151.07 182.742C151.07 192.821 142.946 200.992 132.924 200.992C122.902 200.992 114.778 192.821 114.778 182.742C114.778 172.662 122.902 164.491 132.924 164.491C142.946 164.491 151.07 172.662 151.07 182.742Z" fill="#E75F42"/>
<path d="M77 164.491H132.924V200.992H95.1461L77 164.491Z" fill="#E75F42"/>
<defs>
<linearGradient id="paint0_linear_1584_61" x1="75.5351" y1="0" x2="75.5351" y2="204.611" gradientUnits="userSpaceOnUse">
<stop stop-color="#3866F2"/>
<stop offset="1" stop-color="#164AEA"/>
</linearGradient>
<linearGradient id="paint1_linear_1584_61" x1="75.5351" y1="0" x2="75.5351" y2="204.611" gradientUnits="userSpaceOnUse">
<stop stop-color="#3866F2"/>
<stop offset="1" stop-color="#164AEA"/>
</linearGradient>
<linearGradient id="paint2_linear_1584_61" x1="75.5351" y1="0" x2="75.5351" y2="204.611" gradientUnits="userSpaceOnUse">
<stop stop-color="#3866F2"/>
<stop offset="1" stop-color="#164AEA"/>
</linearGradient>
<linearGradient id="paint3_linear_1584_61" x1="75.5351" y1="0" x2="75.5351" y2="204.611" gradientUnits="userSpaceOnUse">
<stop stop-color="#3866F2"/>
<stop offset="1" stop-color="#164AEA"/>
</linearGradient>
</defs>
</svg>
